<?xml version="1.0" standalone="no"?>
<!DOCTYPE svg PUBLIC "-//W3C//DTD SVG 20010904//EN"
 "http://www.w3.org/TR/2001/REC-SVG-20010904/DTD/svg10.dtd">
<svg version="1.0" xmlns="http://www.w3.org/2000/svg"
 width="512.000000pt" height="512.000000pt" viewBox="0 0 512.000000 512.000000"
 preserveAspectRatio="xMidYMid meet">
<metadata>
Created by potrace 1.14, written by Peter Selinger 2001-2017
</metadata>
<g transform="translate(0.000000,512.000000) scale(0.100000,-0.100000)"
fill="#000000" stroke="none">
<path d="M2925 5055 c-27 -6 -74 -27 -104 -45 l-53 -33 -222 -3 c-264 -4 -295
-7 -456 -41 -176 -37 -320 -82 -475 -148 -46 -20 -89 -34 -95 -30 -5 3 -10 1
-10 -4 0 -6 -5 -11 -11 -11 -5 0 -7 4 -4 10 3 6 -1 7 -9 4 -9 -3 -16 -10 -16
-15 0 -4 -8 -5 -17 -2 -16 6 -16 5 -4 -10 13 -16 11 -16 -20 -3 -33 14 -79 5
-79 -15 0 -5 -10 -9 -22 -9 -45 0 -68 -4 -68 -12 0 -4 -3 -7 -7 -7 -20 3 -26
-2 -13 -11 11 -8 8 -9 -13 -6 -15 3 -25 1 -22 -4 3 -5 -11 -12 -32 -16 -29 -6
-33 -9 -19 -14 17 -5 17 -7 4 -12 -9 -4 -28 -5 -43 -4 -16 2 -29 -2 -32 -10
-3 -8 -10 -14 -17 -14 -6 0 -20 -13 -29 -30 -10 -16 -22 -30 -28 -30 -5 0 -9
-7 -9 -15 0 -9 -7 -18 -15 -21 -8 -4 -15 -13 -15 -21 0 -8 -4 -11 -10 -8 -6 3
-7 -1 -4 -10 5 -12 2 -16 -12 -13 -13 2 -19 -3 -19 -17 0 -11 -5 -19 -12 -18
-7 2 -10 -3 -7 -11 3 -8 0 -17 -5 -21 -6 -3 -9 -11 -6 -16 3 -5 -1 -6 -9 -3
-11 4 -13 0 -9 -15 3 -12 1 -21 -6 -21 -6 0 -11 -4 -11 -9 0 -5 8 -8 18 -6 9
1 11 0 4 -2 -7 -3 -9 -9 -6 -15 4 -7 2 -8 -4 -4 -7 4 -12 1 -12 -6 0 -7 -17
-31 -37 -53 -28 -31 -159 -194 -201 -250 -114 -154 -262 -463 -326 -683 -28
-96 -30 -106 -56 -242 -31 -163 -32 -180 -35 -395 -2 -215 9 -335 50 -530 52
-250 167 -523 328 -780 92 -147 268 -346 477 -539 47 -43 76 -72 65 -65 -11 8
-23 18 -26 22 -3 5 -6 -6 -7 -22 0 -17 3 -31 8 -31 5 0 7 8 4 18 -5 13 -4 14
4 3 5 -7 15 -17 22 -21 8 -5 7 -9 -5 -13 -10 -5 -14 -3 -9 5 4 7 3 8 -4 4 -6
-4 -9 -13 -5 -22 4 -12 8 -12 22 -2 14 11 14 11 4 -3 -10 -12 -10 -18 0 -29 9
-10 9 -11 -1 -6 -10 6 -11 1 -7 -17 4 -15 2 -28 -6 -33 -9 -5 -11 -2 -6 9 4
11 2 14 -9 10 -23 -9 4 -35 28 -27 19 6 19 5 -1 -15 -12 -12 -21 -27 -21 -33
0 -9 4 -8 10 2 8 12 10 9 10 -13 0 -24 3 -27 20 -22 14 5 20 2 20 -10 0 -9 -4
-14 -8 -11 -4 2 -9 -5 -9 -16 -2 -19 -1 -19 11 -3 9 13 15 15 20 7 4 -7 2 -12
-5 -12 -7 0 -9 -3 -6 -6 4 -4 12 -2 20 4 8 7 18 7 27 2 10 -7 11 -10 3 -10 -7
0 -13 -5 -13 -11 0 -8 5 -7 16 2 13 10 17 10 25 -2 8 -10 8 -8 4 10 -5 17 -4
21 5 16 9 -6 9 -3 0 14 -9 17 -9 26 2 38 11 14 10 15 -12 9 -24 -6 -24 -6 3 9
18 11 33 13 43 7 11 -6 13 -11 5 -16 -6 -4 -11 -2 -11 3 0 6 -5 11 -12 11 -6
0 -8 -3 -5 -7 4 -3 2 -12 -5 -20 -6 -8 -7 -13 -2 -12 19 3 29 -1 18 -9 -7 -5
-5 -14 9 -27 11 -11 16 -14 12 -6 -5 9 -2 19 10 28 11 7 14 13 8 13 -17 0 -9
31 12 46 10 8 14 14 8 14 -6 0 -8 11 -5 25 2 14 6 25 8 25 2 0 26 -14 54 -30
28 -17 55 -30 60 -30 6 0 10 -4 10 -10 0 -5 5 -10 11 -10 6 0 23 -9 37 -19 15
-10 30 -18 34 -17 3 0 10 -3 15 -8 5 -5 3 -6 -4 -2 -7 4 -13 2 -13 -3 0 -14
13 -14 28 1 9 9 12 8 13 -7 0 -11 3 -14 6 -8 3 10 12 9 35 -3 24 -12 28 -18
17 -25 -8 -5 -9 -9 -3 -9 5 0 16 6 23 13 11 10 12 9 6 -2 -6 -11 -4 -13 8 -8
9 3 19 2 23 -4 3 -6 12 -8 19 -5 8 3 19 -2 25 -9 7 -8 16 -12 21 -9 5 3 16 -2
25 -10 9 -9 20 -14 25 -11 5 4 9 2 9 -4 0 -5 6 -11 13 -14 6 -2 1 -2 -12 0
-21 4 -23 2 -12 -10 19 -23 -4 -30 -34 -11 -14 9 -28 14 -31 11 -3 -3 4 -10
15 -17 22 -11 28 -30 10 -30 -5 0 -8 4 -5 8 2 4 -3 13 -13 19 -15 10 -18 7
-18 -17 0 -19 5 -26 14 -23 7 3 13 0 13 -7 0 -6 -4 -9 -9 -6 -5 3 -15 -2 -22
-11 -12 -14 -11 -15 11 -9 19 6 21 5 10 -3 -13 -9 -12 -11 5 -12 11 -1 24 -1
28 0 5 1 6 -2 3 -7 -2 -4 4 -13 15 -20 21 -13 26 -3 7 16 -17 17 2 35 22 21
13 -9 12 -10 -2 -5 -10 3 -18 1 -18 -4 0 -12 36 -31 44 -23 12 12 6 -13 -6
-26 -11 -12 -9 -13 7 -6 11 4 30 9 42 10 12 2 28 6 35 10 7 3 5 0 -5 -9 -11
-8 -25 -12 -31 -10 -7 3 -13 -2 -13 -11 0 -18 2 -18 28 -5 15 8 24 7 39 -8 16
-14 17 -19 5 -19 -8 0 -15 4 -15 9 0 5 -5 6 -11 2 -8 -4 -7 -9 2 -15 8 -5 10
-9 4 -9 -5 0 -17 5 -25 10 -12 8 -12 10 -1 10 8 0 11 3 8 6 -4 4 -13 1 -22 -6
-15 -12 -20 -4 -16 23 0 4 -4 7 -10 7 -6 0 -9 -6 -6 -13 3 -8 -1 -14 -9 -14
-7 0 -11 4 -8 8 2 4 0 10 -5 14 -6 3 -8 13 -5 23 4 15 4 15 -7 1 -11 -15 -14
-14 -31 3 -10 10 -22 18 -26 18 -12 0 -11 -32 1 -47 15 -20 -8 -16 -24 4 -8 9
-13 18 -11 20 1 1 -1 2 -5 1 -5 -2 -7 -6 -6 -10 4 -12 -15 -10 -22 2 -3 5 -2
10 2 10 5 0 10 11 11 25 1 14 -2 25 -7 25 -6 0 -9 -8 -9 -18 0 -9 -3 -25 -7
-35 -4 -10 -3 -17 5 -17 6 0 8 -6 4 -12 -4 -7 -4 -10 1 -6 4 4 14 3 22 -4 11
-9 12 -7 6 8 -6 17 -5 17 10 5 14 -11 15 -16 5 -29 -11 -13 -8 -13 12 1 31 21
38 21 36 1 0 -11 8 -18 24 -20 18 -3 21 -2 10 5 -8 5 -17 8 -21 5 -4 -2 -7 5
-6 16 1 21 23 35 32 20 4 -6 1 -10 -5 -10 -6 0 -8 -5 -5 -11 4 -5 12 -8 18 -6
7 2 21 0 32 -6 28 -15 58 -16 74 -3 11 9 13 6 7 -14 -5 -17 -4 -21 2 -11 7 9
15 10 28 4 11 -5 26 -9 34 -8 8 0 19 -4 23 -10 5 -6 6 -2 3 9 -4 12 -2 17 6
13 7 -3 21 -8 31 -12 10 -4 17 -3 17 5 0 6 -4 9 -8 6 -4 -2 -13 -2 -19 2 -8 5
-5 15 8 31 10 13 19 18 19 13 0 -6 -4 -14 -10 -17 -5 -3 -10 -12 -10 -18 1 -7
9 -3 18 9 15 18 20 19 31 7 11 -12 15 -12 24 2 10 13 12 11 12 -14 1 -22 -2
-27 -11 -20 -8 6 -14 7 -18 0 -4 -5 -2 -12 4 -16 5 -3 10 -3 10 1 0 4 7 -1 15
-12 15 -19 15 -19 8 1 -6 18 -5 18 10 6 9 -7 17 -10 17 -5 0 4 6 -1 14 -12 8
-10 18 -16 22 -11 4 4 2 7 -4 7 -7 0 -12 5 -12 11 0 5 4 8 9 4 5 -3 12 -1 16
5 4 7 13 7 26 0 11 -6 17 -15 14 -21 -4 -5 -1 -9 4 -9 6 0 11 5 11 11 0 8 4 8
15 -1 15 -12 39 -5 30 10 -5 9 33 26 49 22 5 -2 6 4 3 12 -4 9 -2 18 3 21 4 3
7 -6 5 -20 -1 -16 3 -25 12 -25 8 0 11 -5 8 -11 -5 -7 -13 -5 -24 5 -13 12
-20 13 -29 4 -15 -15 -15 -28 -1 -28 5 0 7 5 4 10 -3 6 0 10 9 10 8 0 16 -6
19 -12 3 -10 9 -8 24 4 25 23 32 23 28 0 -1 -9 0 -11 2 -3 4 12 6 12 14 0 6
-10 9 -10 9 -1 0 6 5 12 11 12 5 0 7 -6 3 -12 -4 -7 -4 -10 1 -6 4 4 14 0 21
-10 12 -15 12 -14 7 8 -6 25 -6 25 13 5 10 -11 16 -16 12 -11 -14 18 -8 29 8
15 10 -8 18 -9 22 -2 10 15 82 12 82 -3 0 -18 17 -27 26 -13 4 7 3 9 -3 6 -6
-4 -13 2 -16 13 -3 11 -1 20 5 20 5 0 6 4 3 10 -4 6 1 7 11 3 14 -5 16 -3 11
11 -4 9 -3 15 2 11 5 -3 11 1 14 7 2 7 4 -2 3 -21 -1 -25 5 -37 22 -49 13 -8
22 -11 21 -6 -5 27 1 36 16 24 8 -7 15 -9 15 -4 0 5 4 2 9 -5 8 -12 13 -11 28
8 16 20 23 22 41 12 14 -7 19 -18 17 -32 -3 -12 -1 -19 2 -15 12 11 13 46 2
46 -5 0 -7 5 -3 12 5 8 13 4 26 -12 l18 -23 -4 24 c-2 13 -9 23 -15 22 -6 -2
-11 2 -11 8 0 6 9 8 22 3 21 -6 22 -6 8 12 -13 17 -13 18 1 7 12 -10 20 -9 40
4 13 9 19 10 12 3 -20 -21 -15 -32 6 -18 11 7 17 16 15 20 -3 4 0 8 5 8 6 0
11 -4 11 -8 0 -4 9 -8 20 -9 27 -2 25 11 -2 26 -18 9 -18 10 -3 5 11 -3 26 -7
33 -8 7 -1 18 -8 25 -16 9 -11 8 -11 -7 0 -18 14 -19 13 -13 -3 4 -10 3 -16
-1 -13 -4 2 -14 1 -22 -4 -8 -5 -19 -5 -26 1 -8 6 -14 4 -18 -6 -3 -9 -10 -13
-16 -10 -5 3 -10 1 -10 -4 0 -6 -4 -11 -10 -11 -5 0 -9 4 -7 9 1 5 -2 8 -8 8
-10 -2 -19 -37 -9 -37 3 0 14 5 25 10 13 8 25 7 40 -1 12 -6 19 -7 15 -1 -7
12 18 35 27 25 4 -3 7 -2 7 3 0 5 9 10 19 11 12 1 18 -3 15 -11 -7 -18 22 -41
32 -25 4 7 3 9 -4 5 -17 -10 -25 13 -10 31 11 14 11 16 -1 8 -10 -5 -12 -4 -7
4 4 6 2 19 -5 27 -10 12 -9 13 5 8 15 -6 20 -19 19 -50 0 -6 8 -9 18 -7 20 6
27 25 8 20 -6 -1 -14 5 -16 13 -3 11 -2 12 5 2 6 -9 11 -6 20 13 10 21 9 25
-6 26 -13 0 -13 2 -3 6 8 3 20 -2 28 -13 15 -20 47 -29 40 -11 -3 7 -10 11
-16 9 -9 -2 -9 3 -1 19 7 11 14 18 17 15 3 -3 12 2 20 12 13 15 13 15 3 -6 -6
-12 -16 -20 -22 -16 -6 4 -9 1 -6 -6 7 -23 24 -22 36 2 6 13 11 17 11 10 1 -7
5 -11 10 -8 5 3 11 -1 15 -9 6 -16 -14 -16 -27 0 -5 6 -6 2 -3 -8 4 -12 2 -16
-6 -11 -7 5 -8 3 -3 -6 5 -9 4 -11 -3 -6 -8 5 -10 2 -6 -8 3 -9 10 -16 16 -16
5 0 6 -4 3 -10 -3 -6 1 -7 10 -3 11 4 13 8 6 13 -8 4 -4 13 10 25 20 19 20 19
16 -5 -2 -14 -2 -19 0 -12 3 7 9 10 14 7 5 -4 6 2 2 12 -6 16 -5 16 10 4 9 -7
15 -17 12 -20 -2 -4 2 -8 10 -8 8 0 15 4 15 9 0 4 -5 8 -11 8 -5 0 -7 5 -4 10
5 8 12 7 22 -2 12 -10 18 -8 33 12 10 14 16 28 14 32 -12 19 16 6 30 -14 13
-18 16 -19 16 -5 0 9 5 17 10 17 6 0 10 -7 10 -15 0 -8 5 -15 10 -15 7 0 7 7
0 20 -8 16 -17 19 -33 14 -19 -6 -20 -5 -8 9 7 9 17 15 21 12 8 -5 24 24 22
37 -1 4 7 6 18 5 13 -1 19 -6 15 -15 -3 -7 -5 -16 -5 -18 0 -3 -4 -3 -9 1 -11
6 -26 -13 -17 -22 8 -9 46 27 46 44 0 7 5 13 10 13 6 0 10 -6 10 -14 0 -20 17
-29 26 -15 4 7 3 9 -3 6 -6 -4 -13 3 -16 14 -4 15 -11 20 -22 15 -12 -4 -15
-1 -11 12 6 17 -6 44 -18 43 -18 -3 -19 1 -1 10 16 7 14 8 -9 4 -26 -6 -28 -4
-17 9 10 12 10 16 2 16 -7 0 -10 4 -6 10 3 5 11 8 18 6 7 -1 9 -1 5 1 -5 3 -8
9 -8 14 0 6 4 8 9 4 5 -3 13 0 17 6 11 18 14 60 4 54 -5 -3 -6 -13 -3 -23 6
-15 5 -15 -11 -3 -21 17 -19 19 77 71 51 28 77 37 78 28 0 -7 4 -3 10 10 5 13
13 21 18 18 5 -3 20 3 33 14 19 14 25 15 25 5 0 -8 -4 -12 -8 -10 -3 3 -12 -1
-18 -9 -9 -10 -7 -17 6 -27 17 -13 17 -13 3 5 -14 18 -13 19 5 14 16 -4 21 0
22 15 1 11 7 25 14 31 9 8 10 8 4 -3 -5 -9 -3 -12 6 -9 8 3 13 11 11 17 -1 7
2 9 8 6 6 -4 9 -13 7 -19 -3 -7 1 -13 9 -13 8 0 13 6 10 13 -3 8 2 12 13 11
12 -1 17 -7 13 -19 -2 -10 1 -18 7 -18 5 0 8 7 5 15 -4 8 -1 15 6 15 6 0 9 4
6 9 -4 5 4 7 16 3 16 -4 19 -2 13 9 -7 11 -5 11 10 -1 17 -13 18 -13 13 0 -3
9 4 22 17 32 22 16 22 16 23 -10 0 -15 0 -32 1 -39 1 -13 41 -13 41 0 0 5 -6
7 -13 4 -8 -3 -12 5 -12 23 -1 19 3 26 12 23 7 -3 13 -9 13 -15 0 -5 6 -6 13
-2 9 5 9 4 0 -6 -10 -11 -10 -17 3 -31 12 -14 13 -22 4 -36 -10 -16 -10 -16
-5 5 4 12 2 22 -4 22 -5 0 -12 -8 -14 -17 -4 -17 -5 -17 -6 0 -1 14 -5 16 -20
7 -14 -7 -21 -6 -25 3 -2 6 -4 3 -3 -8 3 -25 15 -45 28 -45 5 0 9 5 9 11 0 5
-4 8 -8 5 -5 -3 -9 1 -9 9 0 20 10 19 24 -4 17 -28 -12 -37 -46 -14 -22 14
-24 14 -13 1 9 -11 10 -18 2 -23 -5 -3 -10 -1 -10 6 0 10 -3 10 -12 1 -7 -7
-8 -16 -2 -25 5 -7 1 -4 -8 6 -15 16 -18 17 -18 3 0 -9 5 -16 11 -16 5 0 7 -5
4 -10 -4 -6 -10 -8 -15 -5 -11 7 -2 -47 9 -58 5 -5 12 -4 15 2 4 6 15 11 24
11 15 0 15 -2 2 -10 -8 -5 -16 -18 -16 -29 -1 -11 2 -18 7 -15 4 2 6 11 2 19
-3 9 1 15 10 15 8 0 18 7 21 16 3 8 2 12 -4 9 -6 -3 -10 -3 -11 2 0 4 -2 17
-4 28 -4 20 -4 20 11 1 10 -14 14 -16 14 -5 0 11 2 12 9 1 6 -10 10 -8 16 10
4 12 6 29 5 37 -1 8 3 10 11 5 7 -4 10 -3 6 3 -8 13 17 36 27 26 4 -4 4 1 0
12 -6 15 -4 17 12 11 15 -6 17 -5 7 5 -16 16 -17 29 -3 29 6 0 14 -10 19 -22
l8 -22 5 22 c3 12 3 21 -1 20 -3 -1 -16 3 -27 10 -12 6 -25 8 -29 4 -5 -4 -5
-2 -1 5 4 7 14 9 23 6 12 -5 14 -3 8 7 -5 9 -4 11 4 6 6 -4 9 -11 6 -16 -3 -4
4 -10 15 -13 17 -4 20 -12 17 -41 -5 -41 -2 -44 14 -15 9 17 8 20 -2 14 -8 -5
-10 -4 -5 4 4 6 12 9 17 5 5 -3 7 -10 4 -15 -4 -5 -2 -9 4 -9 6 0 22 -12 37
-26 14 -15 19 -24 10 -21 -9 4 -16 2 -16 -3 0 -6 9 -10 19 -10 11 0 33 -14 49
-30 17 -17 27 -30 22 -30 -4 0 -7 -13 -7 -28 1 -16 7 -29 14 -29 7 0 10 4 7 9
-3 4 0 8 7 8 7 0 5 6 -5 13 -15 11 -16 14 -3 14 8 0 21 -10 27 -21 20 -35 67
-67 104 -70 19 -1 33 1 30 6 -3 4 2 8 11 8 26 0 94 79 101 117 7 39 24 19
-280 330 l-120 122 30 28 c98 95 241 272 325 403 70 110 72 113 110 190 18 36
38 68 44 72 5 4 7 8 3 8 -4 0 7 30 24 68 27 58 92 236 103 282 3 8 11 40 19
70 15 56 56 275 59 314 1 11 8 27 17 34 13 10 12 11 -5 6 -15 -4 -16 -3 -6 4
8 6 10 15 5 23 -6 11 -5 12 8 2 8 -7 18 -10 22 -6 4 4 10 2 14 -4 8 -13 82
-25 82 -13 0 3 -27 34 -60 67 l-59 61 -6 149 c-9 222 -17 289 -51 438 -14 61
-27 120 -30 131 -2 12 -22 73 -43 135 -22 63 -35 116 -30 117 5 2 6 9 2 15 -7
11 52 -28 75 -49 6 -7 12 -20 12 -28 0 -9 5 -16 11 -16 5 0 7 5 4 10 -12 19 1
10 24 -17 13 -14 17 -24 9 -21 -9 4 -14 -1 -15 -13 -1 -11 5 -19 13 -19 8 0
14 -4 14 -10 0 -5 6 -10 13 -10 6 1 1 10 -12 20 l-23 20 23 0 c12 0 19 -3 16
-7 -4 -3 0 -14 9 -24 9 -10 14 -24 11 -32 -3 -8 3 -14 17 -15 18 -1 25 7 38
47 19 58 11 81 -52 156 -40 48 -108 93 -231 156 -36 18 -64 40 -76 61 l-20 33
24 44 c26 50 31 150 10 187 -29 49 -76 92 -124 112 -56 24 -78 21 -86 -9 -3
-10 -9 -19 -15 -19 -5 0 -36 30 -68 68 -86 99 -208 219 -299 293 -91 75 -251
189 -264 189 -5 0 -14 7 -21 15 -7 9 -15 14 -17 11 -3 -2 -21 7 -41 20 -34 24
-176 94 -190 94 -11 1 -57 38 -57 47 -2 24 -18 53 -31 53 -13 0 -18 12 -15 33
0 4 -6 7 -14 7 -8 0 -17 11 -21 25 -3 14 -11 25 -16 25 -6 0 -7 7 -4 16 3 9 2
12 -5 8 -6 -3 -8 -18 -5 -33 5 -19 4 -22 -4 -11 -5 8 -10 22 -10 31 0 19 -30
35 -30 16 0 -8 -3 -8 -9 2 -5 7 -14 10 -20 7 -6 -4 -14 0 -17 9 -4 9 -13 14
-21 11 -8 -3 -12 -2 -9 3 3 4 -14 16 -37 26 -46 19 -134 27 -143 14 -3 -5 -14
-5 -24 1 -22 12 -30 12 -95 -5z m-1515 -345 c0 -4 -9 -6 -21 -3 -15 4 -17 8
-8 14 14 8 29 3 29 -11z m1003 -54 c3 -8 -1 -22 -8 -33 -19 -24 -18 -33 0 -33
8 0 14 3 14 8 -4 22 3 31 17 25 14 -5 15 -3 5 15 -15 28 -15 28 13 28 14 0 22
-4 20 -8 -3 -5 -10 -6 -15 -3 -5 4 -9 -1 -9 -9 0 -8 5 -18 10 -21 6 -3 10 -16
9 -28 -1 -22 -1 -22 -7 -1 -8 26 -35 18 -40 -10 -3 -17 -2 -18 12 -7 11 9 16
10 16 2 0 -6 -5 -11 -11 -11 -5 0 -7 -5 -4 -10 5 -8 12 -7 23 2 15 12 16 11 3
-4 -12 -17 -15 -16 -44 8 -16 14 -36 23 -43 20 -7 -3 -11 0 -8 7 2 7 -4 13
-16 14 -19 2 -28 -11 -12 -20 4 -2 1 -2 -7 0 -8 2 -11 -2 -8 -12 4 -8 2 -17
-3 -20 -6 -4 -10 -12 -10 -18 1 -7 9 -2 19 11 22 26 33 29 24 7 -3 -9 -2 -15
3 -14 29 5 34 -2 19 -24 -14 -22 -12 -37 6 -37 5 0 6 6 3 14 -8 20 14 30 31
16 8 -7 15 -9 15 -4 -1 15 -24 40 -44 47 -10 4 -16 10 -13 14 8 8 57 -24 57
-38 0 -6 5 -7 11 -3 7 4 7 -1 -1 -16 -9 -16 -15 -19 -23 -11 -13 13 -27 14
-27 3 0 -5 10 -14 23 -21 22 -11 22 -11 -3 -5 -22 6 -23 5 -11 -10 18 -22 -1
-48 -21 -28 -19 19 -33 14 -16 -5 23 -27 30 -43 20 -43 -5 0 -12 10 -15 22 -6
22 -6 22 -27 3 -20 -18 -20 -20 -4 -32 10 -7 14 -13 8 -13 -5 -1 2 -8 16 -16
17 -11 19 -13 5 -9 -38 13 -55 14 -55 4 0 -5 -5 -9 -11 -9 -8 0 -8 4 1 14 9
12 8 15 -9 13 -12 -1 -19 -7 -17 -13 2 -6 -3 -11 -11 -10 -9 0 -18 -4 -20 -10
-2 -7 7 -10 25 -8 26 3 29 0 29 -27 l0 -31 -14 26 c-16 31 -17 31 -37 10 -19
-19 -21 -35 -3 -31 6 1 12 -7 12 -17 0 -11 5 -21 12 -23 15 -5 9 33 -8 53 -8
10 -8 14 0 14 6 0 11 -4 11 -10 0 -5 10 -19 23 -30 15 -15 17 -19 5 -15 -14 5
-16 1 -12 -23 3 -17 0 -33 -6 -37 -13 -8 -13 -35 1 -35 5 0 8 4 5 9 -3 5 1 14
9 21 10 9 15 9 15 1 0 -6 -6 -11 -12 -11 -10 0 -10 -2 0 -8 9 -6 5 -12 -15
-21 -22 -10 -24 -14 -12 -22 17 -11 32 -12 25 -1 -2 4 4 13 15 20 23 14 25 7
4 -14 -23 -23 -18 -29 20 -30 19 0 35 4 35 9 0 6 3 7 6 4 4 -4 1 -14 -7 -24
-13 -15 -12 -16 6 -9 18 7 18 5 -2 -14 -13 -11 -23 -25 -23 -30 0 -6 -5 -10
-10 -10 -6 0 -4 10 5 23 14 22 12 37 -6 37 -5 0 -6 -6 -3 -14 3 -8 1 -17 -5
-21 -7 -4 -8 0 -5 10 4 9 3 15 -2 14 -20 -3 -35 2 -29 10 8 15 -32 39 -61 35
-29 -3 -56 -22 -48 -35 3 -5 1 -9 -5 -9 -5 0 -11 5 -13 12 -3 7 -12 9 -22 5
-14 -6 -16 -11 -7 -20 7 -9 33 -13 78 -12 37 1 73 0 80 -2 19 -7 22 -29 3 -29
-10 0 -16 5 -14 11 3 6 -5 11 -17 12 -17 2 -18 -1 -9 -13 9 -10 9 -14 1 -14
-6 0 -11 5 -11 12 0 6 -9 3 -20 -7 -11 -10 -20 -13 -20 -7 0 6 6 12 13 15 6 2
9 8 4 12 -4 5 -12 4 -18 -2 -6 -6 -18 -9 -27 -6 -11 5 -13 3 -7 -8 5 -8 1 -7
-12 4 -27 24 -40 22 -18 -3 17 -18 17 -20 2 -14 -17 6 -21 15 -18 44 1 9 -8 4
-22 -12 -24 -29 -37 -35 -37 -17 0 5 5 7 12 3 8 -5 9 -2 5 10 -4 9 -3 15 3 11
5 -3 8 4 7 15 -1 11 -6 19 -12 19 -33 -4 -38 1 -20 21 19 20 9 28 -13 10 -9
-7 -9 -7 -2 2 6 8 5 17 -3 27 -7 9 3 6 25 -7 l37 -23 35 31 c27 24 39 29 53
22 10 -5 24 -7 32 -4 8 3 6 -3 -5 -15 -13 -13 -23 -17 -31 -11 -8 7 -11 3 -10
-11 2 -26 11 -26 35 -1 13 14 25 18 38 13 18 -7 18 -6 2 17 -9 14 -21 24 -28
22 -6 -1 -19 2 -29 7 -13 7 -24 6 -39 -5 -13 -9 -22 -11 -22 -5 0 6 5 11 11
11 5 0 8 4 5 8 -5 8 1 10 43 14 12 2 19 9 18 20 -2 22 -2 22 -34 1 -19 -13
-28 -14 -31 -5 -10 32 -21 6 -22 -55 -1 -31 -28 -36 -58 -11 -15 11 -19 18
-10 15 14 -5 17 -2 15 14 -2 11 -9 24 -16 29 -10 6 -10 9 -1 15 9 6 9 10 -1
17 -11 7 -9 8 5 6 10 -2 21 3 24 11 3 8 0 11 -7 7 -6 -4 -11 -2 -11 3 0 6 3
12 8 12 46 7 64 6 68 -4 2 -7 15 -13 27 -14 22 -2 22 -1 -3 18 -14 10 -30 23
-37 29 -15 13 -26 13 -18 1 3 -6 -3 -9 -12 -9 -10 0 -27 -3 -38 -7 -12 -4 -15
-3 -8 2 22 16 19 46 -7 60 -16 8 -19 13 -9 13 9 0 22 -7 29 -15 11 -13 15 -13
21 -3 11 17 11 31 0 24 -5 -4 -16 -3 -25 0 -13 5 -14 9 -5 20 9 12 7 14 -11
12 -13 -2 -24 3 -26 10 -1 7 0 8 3 2 7 -16 26 -12 20 4 -3 8 1 20 9 27 8 6 12
14 9 17 -3 3 -14 -3 -25 -13 -19 -18 -26 -11 -21 19 1 5 -9 6 -23 4 -30 -6
-26 7 4 15 18 5 25 -4 21 -26 -1 -5 3 -7 9 -5 7 2 11 6 10 8 -8 40 -14 50 -26
46 -44 -18 -49 -19 -38 -6 7 6 23 12 35 11 52 -1 110 0 129 1 20 2 29 18 9 18
-6 0 -8 8 -4 19 7 22 -18 46 -40 37 -8 -3 -12 -11 -9 -19 2 -7 -4 -21 -14 -30
-20 -18 -48 -15 -49 6 0 7 -4 21 -8 32 -5 14 -4 16 3 6 7 -9 11 -10 17 -2 4 7
16 9 27 5 15 -4 18 -3 13 6 -5 8 -4 11 1 7 6 -3 16 -2 24 3 10 6 18 2 28 -11
7 -11 18 -17 23 -14 13 9 11 26 -2 23 -6 -2 -14 4 -16 12 -4 12 -3 12 5 2 5
-8 12 -13 16 -13 24 3 28 0 17 -13 -9 -11 -6 -13 14 -13 22 0 24 2 13 15 -11
13 -11 14 1 7 9 -5 18 -2 27 10 12 16 13 16 11 -3 0 -11 -5 -18 -9 -16 -4 3
-8 3 -8 0 0 -2 -3 -12 -7 -21 -6 -16 -5 -16 20 0 17 10 24 22 20 33 -3 13 -2
14 4 4 6 -7 18 -13 29 -12 79 3 96 6 105 23 7 11 7 17 -1 17 -5 0 -10 -4 -10
-10 0 -5 -5 -10 -10 -10 -6 0 -5 8 2 20 15 24 24 25 31 6z m-117 -11 c-6 -17
2 -19 24 -5 12 8 12 10 1 10 -8 0 -11 3 -8 6 4 4 13 1 22 -6 10 -8 15 -9 15
-1 0 6 4 11 10 11 5 0 7 -6 4 -14 -3 -8 -13 -14 -22 -14 -9 0 -24 -2 -33 -6
-10 -4 -21 0 -30 10 -9 12 -10 15 -1 10 6 -4 12 -2 12 3 0 6 3 11 6 11 3 0 4
-7 0 -15z m-66 -5 c0 -5 -5 -10 -11 -10 -5 0 -7 5 -4 10 3 6 8 10 11 10 2 0 4
-4 4 -10z m265 0 c-3 -5 -11 -10 -16 -10 -6 0 -7 5 -4 10 3 6 11 10 16 10 6 0
7 -4 4 -10z m-368 -70 c-1 -10 -5 -16 -9 -14 -4 3 -8 0 -8 -5 0 -6 -5 -11 -10
-11 -6 0 -4 10 5 23 8 13 12 27 8 32 -5 4 -3 5 4 1 6 -3 11 -15 10 -26z m-115
6 c11 -17 10 -23 -8 -30 -13 -5 -14 -4 -6 7 7 8 9 17 5 20 -3 4 -17 -10 -29
-31 -13 -20 -23 -32 -23 -27 0 6 6 18 14 28 7 11 11 25 9 31 -6 16 28 17 38 2z
m-82 -6 c0 -5 -5 -10 -11 -10 -5 0 -7 5 -4 10 3 6 8 10 11 10 2 0 4 -4 4 -10z
m23 -15 c-3 -8 -10 -15 -15 -15 -7 0 -6 5 1 13 6 8 7 18 3 22 -4 5 -2 5 5 1 7
-4 10 -13 6 -21z m53 -113 c1 -12 -2 -19 -7 -16 -4 2 -5 12 -2 21 4 11 3 14
-5 9 -7 -4 -12 -2 -12 4 0 21 25 4 26 -18z m424 -16 c0 -3 -4 -8 -10 -11 -5
-3 -10 -1 -10 4 0 6 5 11 10 11 6 0 10 -2 10 -4z m-400 -26 c8 -5 11 -10 5
-10 -5 0 -17 5 -25 10 -8 5 -10 10 -5 10 6 0 17 -5 25 -10z m330 0 c0 -5 -5
-10 -11 -10 -5 0 -7 5 -4 10 3 6 8 10 11 10 2 0 4 -4 4 -10z m1250 -31 c0 -5
-5 -7 -12 -3 -7 5 -9 2 -5 -9 4 -11 2 -14 -9 -10 -17 6 -18 20 -1 26 20 9 27
8 27 -4z m20 -19 c0 -5 -5 -10 -11 -10 -5 0 -7 5 -4 10 3 6 8 10 11 10 2 0 4
-4 4 -10z m-1570 -10 c0 -5 -2 -10 -4 -10 -3 0 -8 5 -11 10 -3 6 -1 10 4 10 6
0 11 -4 11 -10z m283 -7 c-7 -2 -13 -11 -13 -18 0 -8 -5 -17 -11 -20 -6 -4 -9
0 -7 11 3 21 17 34 33 33 6 0 4 -3 -2 -6z m1315 -7 c-7 -8 -15 -12 -17 -10 -2
2 -10 -4 -18 -14 -14 -16 -14 -16 -9 1 3 9 1 17 -3 17 -5 0 -11 -5 -13 -12 -3
-8 -7 -6 -10 4 -5 12 -1 15 17 14 13 -2 29 1 37 5 21 14 30 10 16 -5z m-1295
-11 c-3 -9 -8 -14 -10 -11 -3 3 -2 9 2 15 9 16 15 13 8 -4z m1340 -11 c-2 -7
0 -15 6 -19 6 -3 11 -2 11 4 0 6 11 -1 25 -15 15 -15 30 -22 38 -18 6 4 2 -4
-10 -18 -31 -33 -29 -47 3 -17 18 17 23 19 18 6 -6 -16 10 -25 19 -9 2 4 2 1
1 -6 -2 -7 2 -12 9 -11 6 1 19 1 27 0 13 -1 13 -3 1 -10 -10 -6 -25 -4 -44 5
-41 22 -46 9 -6 -15 24 -15 36 -17 46 -9 9 7 20 6 38 -6 31 -20 31 -25 2 -22
-20 2 -24 -2 -24 -25 0 -21 3 -26 12 -19 17 14 23 -4 18 -60 -5 -75 -5 -83 9
-92 9 -6 8 -8 -6 -6 -10 2 -21 -3 -24 -11 -3 -8 0 -11 7 -7 18 12 12 0 -11
-20 -13 -12 -18 -13 -12 -4 4 8 9 20 9 25 1 6 5 19 10 29 6 13 4 22 -7 30 -16
12 -20 46 -5 46 5 0 7 -7 4 -14 -4 -10 -1 -13 9 -9 7 3 14 9 14 13 0 13 -29
32 -39 25 -7 -3 -8 0 -5 9 4 10 1 16 -7 16 -7 0 -9 3 -6 7 4 3 16 -2 27 -12
24 -21 27 -9 4 16 -9 10 -22 15 -29 13 -8 -3 -21 6 -30 20 -10 14 -21 23 -26
20 -12 -7 -11 3 1 27 7 12 7 19 1 19 -6 0 -15 -9 -21 -21 -9 -16 -14 -18 -26
-9 -17 15 -9 32 13 28 9 -2 18 2 20 9 3 8 -5 10 -24 7 -15 -3 -29 -9 -31 -15
-2 -5 -8 -9 -14 -9 -7 0 -6 5 1 14 10 12 9 17 -6 24 -10 5 -24 7 -32 4 -9 -3
-11 0 -6 7 4 7 13 10 20 7 8 -3 19 3 27 11 11 14 11 16 -4 11 -9 -4 -24 0 -35
7 -10 8 -13 15 -7 15 5 0 15 -5 22 -12 8 -8 12 -8 12 -1 0 17 -28 35 -42 27
-10 -5 -11 -4 -1 6 11 12 18 9 41 -13 16 -15 31 -24 35 -20 9 9 9 24 -1 21 -4
-2 -20 7 -35 18 -27 22 -27 22 -3 20 13 0 22 -6 19 -12z m-1643 -23 c0 -5 -7
-12 -16 -15 -14 -5 -15 -4 -4 9 14 17 20 19 20 6z m290 -1 c0 -5 -4 -10 -10
-10 -5 0 -10 5 -10 10 0 6 5 10 10 10 6 0 10 -4 10 -10z m-20 -35 c0 -5 -5 -3
-10 5 -5 8 -10 20 -10 25 0 6 5 3 10 -5 5 -8 10 -19 10 -25z m4 -24 c4 -5 -3
-7 -14 -4 -23 6 -26 13 -6 13 8 0 17 -4 20 -9z m-274 -21 c0 -5 -5 -10 -11
-10 -5 0 -7 5 -4 10 3 6 8 10 11 10 2 0 4 -4 4 -10z m1627 -6 c-3 -3 -12 -4
-19 -1 -8 3 -5 6 6 6 11 1 17 -2 13 -5z m-1337 -69 c0 -8 -4 -15 -10 -15 -5 0
-7 7 -4 15 4 8 8 15 10 15 2 0 4 -7 4 -15z m74 -3 c2 -4 -5 -9 -17 -9 -17 -2
-19 0 -7 7 18 12 18 12 24 2z m1509 -5 c-2 -4 -9 -5 -14 -2 -5 4 -9 2 -9 -3 0
-16 13 -22 25 -12 9 8 14 6 18 -4 4 -10 1 -13 -7 -10 -7 3 -13 -2 -13 -10 0
-8 9 -14 19 -13 10 1 18 8 18 16 0 11 4 10 14 -4 8 -11 11 -26 8 -35 -5 -13
-3 -13 11 -1 11 9 17 10 17 2 0 -6 -5 -11 -11 -11 -5 0 -7 -5 -4 -11 4 -6 -2
-5 -13 2 -15 10 -18 17 -11 26 8 9 5 11 -10 10 -27 -2 -26 -11 1 -37 26 -24
44 -26 55 -5 7 12 11 11 21 -5 10 -17 10 -21 -3 -26 -8 -4 -15 -10 -15 -16 0
-5 6 -6 13 -2 6 4 9 4 5 -1 -4 -4 -3 -14 4 -22 8 -11 7 -12 -6 -7 -9 3 -16 11
-16 18 0 6 -12 -2 -25 -17 -14 -15 -25 -24 -25 -18 0 5 15 25 34 44 35 37 38
55 5 34 -14 -9 -21 -9 -31 1 -16 16 -33 15 -19 -1 12 -16 6 -60 -9 -65 -7 -3
-8 -8 -1 -16 7 -8 4 -12 -9 -13 -11 -1 -22 3 -26 8 -3 6 -12 3 -20 -8 -7 -10
-14 -13 -14 -7 0 6 9 22 21 35 18 21 20 21 17 5 -1 -10 2 -21 9 -23 7 -3 10 5
9 21 -2 15 1 23 8 20 7 -3 12 5 13 17 2 17 -1 18 -13 9 -10 -9 -14 -9 -14 -1
0 6 4 11 9 11 12 0 5 38 -10 56 -6 8 -15 11 -20 8 -5 -3 -9 -1 -9 5 0 5 5 11
10 13 6 2 -1 15 -14 29 l-25 27 29 -2 c15 0 26 -4 23 -9z m-1655 -35 c2 -6 -1
-12 -8 -12 -6 0 -8 5 -5 10 3 6 2 10 -4 10 -5 0 -12 -6 -15 -12 -5 -10 -7 -10
-12 0 -3 6 -10 12 -15 12 -6 0 -7 -4 -4 -10 3 -5 1 -10 -4 -10 -12 0 -15 13
-6 22 11 10 69 2 73 -10z m167 -1 c3 -5 2 -12 -3 -15 -5 -3 -9 1 -9 9 0 17 3
19 12 6z m-382 -32 c-9 -9 -12 -7 -10 9 1 14 5 18 11 12 7 -7 6 -14 -1 -21z
m361 -11 c4 7 12 12 19 12 6 0 2 -7 -9 -15 -13 -10 -15 -14 -5 -15 8 0 11 -3
8 -7 -8 -8 -47 26 -47 40 0 6 6 3 13 -8 10 -12 16 -14 21 -7z m-1 -47 c-1 -2
-9 2 -18 9 -9 8 -15 8 -15 2 0 -6 5 -14 11 -17 6 -4 8 -13 5 -21 -3 -7 -1 -16
4 -19 5 -3 11 3 15 14 7 23 32 34 41 19 4 -6 3 -8 -4 -4 -12 7 -44 -33 -36
-46 4 -5 -3 -4 -15 4 -15 9 -19 19 -14 33 5 17 4 18 -9 8 -8 -7 -14 -27 -13
-44 l2 -30 -24 27 c-17 20 -20 30 -12 40 11 14 4 34 -11 34 -5 0 -7 -8 -4 -17
5 -17 5 -17 -9 -1 -8 10 -17 15 -20 11 -4 -3 -7 -1 -7 5 0 6 14 10 33 9 24 -2
34 3 41 18 9 20 9 20 35 -5 15 -14 25 -27 24 -29z m1514 32 c2 -6 -3 -18 -12
-26 -17 -17 -20 -31 -5 -22 6 3 10 1 10 -5 0 -14 -22 -8 -27 7 -2 6 3 18 12
26 17 17 20 31 5 22 -5 -3 -10 -1 -10 5 0 14 22 8 27 -7z m73 -47 c0 -3 -4 -8
-10 -11 -5 -3 -10 -1 -10 4 0 6 5 11 10 11 6 0 10 -2 10 -4z m-3015 -56 c-3
-5 -12 -10 -18 -10 -7 0 -6 4 3 10 19 12 23 12 15 0z m1415 -11 c0 -6 -4 -7
-10 -4 -5 3 -10 11 -10 16 0 6 5 7 10 4 6 -3 10 -11 10 -16z m1620 17 c0 -2
-7 -7 -16 -10 -8 -3 -12 -2 -9 4 6 10 25 14 25 6z m-3055 -34 c-3 -3 -11 0
-18 7 -9 10 -8 11 6 5 10 -3 15 -9 12 -12z m-15 -12 c12 -8 9 -9 -12 -8 -15 1
-24 6 -22 10 7 10 16 10 34 -2z m49 -44 c-3 -3 -11 5 -18 17 -13 21 -12 21 5
5 10 -10 16 -20 13 -22z m-101 4 c-7 -10 -14 -17 -17 -15 -4 4 18 35 25 35 2
0 -1 -9 -8 -20z m30 0 c-7 -11 -16 -20 -20 -20 -5 0 -3 9 4 20 7 11 16 20 20
20 5 0 3 -9 -4 -20z m41 -3 c12 -15 12 -17 -3 -11 -9 3 -16 13 -16 22 0 8 1
13 3 11 1 -2 9 -12 16 -22z m-9 -23 c0 -2 -7 -4 -15 -4 -8 0 -15 4 -15 10 0 5
7 7 15 4 8 -4 15 -8 15 -10z m-26 -20 c25 -17 14 -19 -15 -1 -17 10 -22 9 -30
-6 -6 -9 -14 -15 -20 -12 -5 4 -9 -1 -9 -9 0 -22 16 -20 33 4 14 20 14 20 35
0 12 -11 27 -20 34 -20 10 0 9 -3 -1 -9 -10 -6 -20 -3 -33 12 l-18 22 -19 -22
c-10 -12 -21 -20 -23 -17 -9 8 -31 -25 -33 -49 -1 -12 4 -32 12 -44 8 -14 9
-23 3 -23 -5 0 -10 4 -10 8 0 20 -27 43 -43 36 -9 -3 -14 -10 -11 -15 3 -5 -3
-6 -12 -2 -16 6 -15 8 4 16 12 6 22 14 22 19 0 5 -5 6 -12 2 -7 -4 -8 -3 -4 5
4 6 12 8 18 5 8 -5 9 -1 4 11 -5 15 -4 16 9 5 18 -15 20 0 3 20 -10 11 -9 11
6 0 18 -14 19 -13 13 2 -4 13 -2 15 10 11 13 -5 13 -3 4 15 -15 28 -14 31 10
27 14 -3 19 0 16 8 -7 18 32 19 57 1z m3123 -6 c2 -17 0 -19 -7 -8 -5 8 -6 18
-4 22 8 12 10 10 11 -14z m-42 3 c3 -6 -4 -15 -15 -21 -13 -7 -20 -7 -20 0 0
5 7 10 16 10 8 0 12 5 9 10 -3 6 -4 10 -1 10 3 0 7 -4 11 -9z m-71 -32 c-3 -6
0 -16 6 -24 7 -9 9 -22 4 -32 -4 -10 -8 -21 -9 -25 -2 -5 -4 -11 -5 -15 -1 -5
-2 -12 -1 -16 1 -5 -3 -6 -9 -2 -8 5 -7 12 2 22 11 14 10 15 -12 9 -24 -6 -24
-6 3 9 27 15 35 39 18 49 -5 3 -11 14 -14 25 -3 14 -1 18 9 14 8 -3 11 -9 8
-14z m-40 -12 c3 4 12 -2 20 -12 12 -17 12 -21 -3 -32 -20 -15 -31 -16 -31 -3
0 6 5 9 11 8 6 -2 14 3 16 10 3 7 0 11 -7 10 -6 -2 -18 8 -27 22 -12 19 -12
21 -1 8 8 -10 18 -15 22 -11z m135 19 c-2 -2 -15 -9 -29 -15 -24 -11 -24 -11
-6 3 16 13 49 24 35 12z m-192 -12 c-3 -3 -12 -4 -19 -1 -8 3 -5 6 6 6 11 1
17 -2 13 -5z m128 -4 c3 -5 1 -10 -4 -10 -6 0 -11 5 -11 10 0 6 2 10 4 10 3 0
8 -4 11 -10z m-3052 -14 c4 -9 1 -13 -6 -10 -8 2 -13 -4 -14 -17 -2 -17 1 -18
13 -9 10 9 14 9 14 1 0 -6 -5 -11 -11 -11 -8 0 -8 -4 -1 -13 6 -7 9 -25 7 -39
-3 -16 2 -31 14 -42 17 -15 19 -15 32 0 11 14 10 15 -6 12 -15 -2 -20 4 -21
25 -3 29 2 32 25 18 9 -6 23 -6 35 0 19 9 19 9 4 -4 -16 -13 -16 -15 3 -31 12
-10 18 -20 15 -23 -3 -3 -16 7 -29 22 -23 27 -47 28 -47 2 0 -9 3 -8 8 1 7 9
13 7 28 -9 10 -13 13 -19 5 -14 -9 5 -12 3 -9 -6 3 -8 14 -13 24 -11 12 2 15
0 7 -5 -16 -12 -20 -45 -5 -50 7 -3 10 1 7 10 -8 19 22 44 36 30 7 -7 4 -18
-13 -33 -18 -18 -19 -22 -5 -17 11 4 16 3 12 -4 -4 -5 -15 -7 -24 -4 -11 3
-24 -2 -32 -11 -12 -15 -11 -16 11 -9 14 4 22 4 17 0 -6 -7 -26 -12 -64 -14
-7 -1 -13 -5 -13 -10 0 -6 9 -8 19 -6 14 3 18 -1 14 -12 -4 -10 -8 -11 -13 -3
-4 6 -11 11 -16 11 -8 -1 -9 4 -5 29 0 5 9 6 19 3 15 -6 15 -5 2 11 -13 17
-15 17 -32 -4 -17 -21 -17 -25 -3 -46 9 -13 11 -24 5 -24 -5 0 -10 5 -10 11 0
5 -4 8 -8 5 -8 -5 -10 1 -14 43 -2 12 -9 19 -20 18 -22 -2 -23 -10 -3 -27 17
-14 20 -40 5 -40 -5 0 -10 -5 -10 -11 0 -5 4 -7 10 -4 5 3 18 2 27 -4 10 -5
24 -6 33 -1 25 13 45 -4 31 -26 -6 -11 -11 -15 -11 -11 0 5 -5 5 -10 2 -6 -4
-1 -14 12 -25 13 -11 21 -20 18 -20 -30 -7 -40 -7 -40 0 0 5 5 10 11 12 6 2 0
9 -15 16 -15 7 -26 8 -26 2 0 -6 5 -10 10 -10 6 0 10 -5 10 -11 0 -8 -5 -8
-15 1 -13 11 -15 9 -11 -11 3 -13 5 -26 5 -29 1 -3 6 2 11 10 6 9 10 10 10 3
0 -18 -21 -27 -30 -13 -7 11 -7 36 0 65 6 27 -1 46 -17 43 -12 -2 -18 4 -19
19 -1 12 3 20 7 17 5 -3 9 -1 9 5 0 32 -31 16 -37 -19 -2 -18 26 -52 38 -44 5
3 9 0 9 -5 0 -14 -13 -14 -28 1 -9 9 -12 9 -12 0 0 -6 8 -16 18 -21 9 -6 12
-11 5 -11 -6 0 -15 5 -18 10 -3 6 -11 10 -17 10 -6 0 -3 -9 7 -20 10 -11 22
-17 26 -14 5 3 9 0 9 -6 0 -7 -8 -9 -22 -4 -20 6 -21 5 -9 -9 7 -9 17 -15 21
-12 4 2 12 -6 18 -19 9 -19 8 -25 -4 -30 -25 -10 -45 4 -34 24 8 15 7 18 -9
17 -12 -1 -18 -9 -18 -23 0 -21 11 -29 55 -39 8 -2 17 -7 20 -11 4 -4 -1 -4
-11 -1 -13 5 -17 2 -15 -10 2 -9 -3 -18 -10 -20 -8 -3 -11 3 -10 18 2 12 -2
24 -8 26 -7 2 -10 -6 -9 -22 2 -14 -1 -25 -6 -25 -5 0 -9 10 -9 23 0 12 -1 38
-2 57 -2 22 1 34 8 33 6 -1 12 10 12 24 l0 27 -19 -24 c-11 -14 -23 -30 -29
-37 -13 -16 -13 -26 0 -18 6 3 10 1 10 -4 0 -6 -10 -10 -21 -8 -12 1 -24 -3
-26 -9 -2 -7 6 -10 22 -9 14 2 26 0 26 -3 6 -31 5 -52 -3 -52 -5 0 -6 9 -3 20
6 19 -10 27 -40 20 -39 -10 -79 -4 -70 10 2 4 -6 8 -20 8 -29 0 -24 -13 13
-31 28 -14 53 -14 87 -2 14 5 16 4 7 -2 -21 -15 13 -37 59 -38 21 -1 42 -5 46
-9 4 -5 -3 -5 -17 -1 -21 7 -23 6 -13 -7 10 -11 8 -18 -8 -31 -13 -12 -19 -13
-18 -5 4 33 -2 46 -24 46 -15 0 -23 -7 -24 -19 -2 -16 2 -17 18 -9 13 7 19 7
19 0 0 -5 -6 -10 -14 -10 -7 0 -19 -7 -26 -15 -10 -12 -10 -18 0 -30 7 -8 9
-15 6 -15 -4 0 -14 7 -22 15 -27 27 -38 16 -13 -12 18 -20 19 -24 4 -13 -11 8
-22 18 -25 22 -3 4 -12 3 -19 -2 -11 -6 -6 -12 18 -24 17 -9 31 -19 31 -22 0
-2 -9 0 -21 6 -11 6 -25 9 -32 7 -7 -3 -1 -10 13 -16 l25 -11 -26 5 c-25 4
-56 -15 -44 -27 10 -9 -35 -41 -62 -44 -18 -2 -32 4 -41 17 -7 10 -18 19 -24
19 -7 0 -7 -4 1 -13 6 -8 8 -16 5 -20 -3 -3 4 -8 16 -12 16 -5 18 -10 10 -20
-8 -10 -5 -12 15 -12 19 0 23 3 15 12 -7 8 -4 11 12 10 12 -1 24 -8 26 -16 3
-11 2 -11 -6 -1 -8 11 -10 11 -15 -2 -4 -9 -17 -14 -39 -13 -24 2 -34 -3 -36
-15 -2 -10 2 -18 8 -18 6 0 9 4 6 8 -3 5 8 8 24 8 16 0 27 -3 24 -8 -3 -4 0
-8 5 -8 6 0 11 -5 11 -11 0 -8 -5 -8 -15 1 -17 14 -18 10 -6 -22 7 -20 6 -24
-10 -25 -10 -1 -19 3 -19 8 0 6 5 7 10 4 6 -3 10 1 10 10 0 9 -5 13 -11 9 -8
-4 -8 0 0 15 8 14 8 21 1 21 -6 0 -13 -7 -16 -15 -5 -12 -10 -13 -20 -4 -10 8
-13 6 -11 -10 1 -13 6 -20 14 -17 21 8 15 -2 -18 -34 -36 -34 -52 -41 -24 -10
10 11 13 20 7 20 -7 0 -12 5 -12 11 0 8 4 8 14 -1 12 -9 15 -8 13 9 -1 12 -8
21 -16 21 -11 0 -10 4 4 14 16 11 17 17 7 29 -10 11 -9 17 3 27 17 14 13 56
-5 52 -7 -1 -8 2 -3 10 8 13 9 18 12 38 0 6 8 10 17 10 8 0 12 5 8 11 -4 8 0
8 15 0 14 -8 21 -8 21 -1 0 5 -4 10 -10 10 -5 0 -10 5 -10 11 0 8 4 8 14 -1
12 -9 15 -8 13 9 -1 12 -6 20 -13 17 -7 -3 -10 5 -8 20 1 13 -2 26 -7 30 -5 3
-9 11 -9 17 0 7 7 3 15 -7 8 -10 12 -23 9 -27 -3 -5 -1 -9 4 -9 16 0 22 13 11
27 -9 10 -8 13 0 13 7 0 9 5 6 10 -4 6 -10 8 -14 6 -4 -3 -13 0 -21 5 -11 6
-5 8 17 4 24 -4 35 -1 42 12 6 10 10 14 10 8 0 -5 -6 -19 -14 -29 -21 -27 -19
-38 4 -24 11 7 19 14 19 17 -2 26 3 33 16 22 20 -17 58 -23 53 -8 -2 7 -12 12
-23 12 -11 0 -18 6 -16 14 2 9 -3 11 -13 7 -9 -3 -14 -2 -11 2 3 5 -8 9 -24 9
-24 0 -27 -3 -19 -14 6 -7 7 -13 3 -13 -5 0 -15 9 -22 20 -7 11 -9 20 -5 19
20 -3 27 2 13 11 -12 7 -11 9 5 9 63 1 99 21 77 43 -15 15 -54 18 -69 6 -9 -7
-13 -7 -13 0 0 6 9 14 20 17 11 3 20 11 20 16 0 6 -4 7 -10 4 -5 -3 -10 -1
-10 5 0 6 8 9 18 6 13 -4 17 0 18 19 2 22 0 24 -14 13 -12 -10 -11 -6 3 15 11
17 24 26 32 23 18 -7 59 19 44 28 -5 4 -12 2 -16 -4 -3 -5 -11 -10 -16 -10 -6
0 -4 6 4 14 8 8 22 14 32 13 10 -1 20 3 22 9 2 7 -6 10 -22 9 -14 -2 -25 1
-25 6 0 6 -4 7 -10 4 -6 -3 -7 1 -3 10 4 11 8 13 13 5 7 -11 17 -12 80 -8 22
2 34 -1 33 -8 -1 -6 9 -11 22 -11 29 0 24 12 -13 30 -28 14 -55 14 -83 2 -30
-12 -46 31 -21 55 14 13 15 12 8 -5 -12 -31 -12 -37 0 -42 7 -2 11 4 10 14 -1
13 5 17 23 15 20 -2 22 0 11 13 -12 15 -4 21 24 16 5 -1 6 5 2 14 -3 10 -2 13
5 10 5 -4 7 -15 4 -24 -3 -10 1 -24 10 -31 8 -7 12 -16 9 -21 -3 -5 -1 -9 5
-9 18 0 21 17 5 30 -8 7 -13 19 -10 25 7 19 -22 55 -39 49 -8 -4 -13 -9 -12
-13 2 -3 -4 -13 -13 -22 -16 -15 -17 -15 -17 8 0 18 2 21 8 12 5 -8 9 -11 9
-7 0 3 3 14 7 24 5 13 3 15 -7 9 -9 -5 -11 -4 -6 4 6 9 11 9 22 0 11 -9 15 -8
20 5 3 9 11 16 16 16 6 0 4 -8 -3 -17 -12 -15 -12 -16 3 -10 13 4 15 2 11 -10
-4 -11 -2 -14 5 -9 8 5 10 1 6 -11 -4 -11 4 -6 21 12 21 23 26 26 23 11 -1
-10 2 -21 9 -23 7 -3 10 5 9 21 -2 15 1 23 8 20 7 -3 12 5 13 16 2 22 -13 28
-20 8 -3 -11 -2 57 2 85 2 12 19 8 24 -7z m2869 -32 c-6 -12 -9 -7 -9 16 0 23
3 28 9 16 5 -9 5 -23 0 -32z m85 3 c-2 -7 0 -20 5 -30 6 -11 5 -24 -2 -35 -9
-14 -10 -13 -4 8 6 22 5 23 -10 11 -10 -9 -16 -10 -16 -2 0 6 5 11 10 11 6 0
10 5 10 10 0 7 -6 7 -20 0 -12 -7 -17 -16 -13 -28 3 -9 3 -14 -1 -10 -4 3 -9
14 -10 23 -1 9 -8 20 -15 25 -9 5 -10 9 -2 14 6 4 9 11 6 16 -10 16 12 19 31
4 19 -14 19 -14 0 -12 -10 2 -21 -2 -23 -8 -2 -6 6 -11 19 -10 19 1 23 7 21
31 -2 25 0 27 8 12 6 -10 8 -23 6 -30z m-2897 8 c0 -8 -2 -15 -4 -15 -2 0 -6
7 -10 15 -3 8 -1 15 4 15 6 0 10 -7 10 -15z m-100 -6 c0 -5 -4 -7 -10 -4 -5 3
-10 2 -10 -4 0 -5 6 -12 13 -15 10 -5 10 -7 0 -12 -7 -3 -13 -10 -13 -15 0 -6
5 -7 10 -4 6 3 10 1 10 -5 0 -7 -6 -10 -12 -8 -12 4 -20 54 -11 71 6 11 23 9
23 -4z m75 1 c3 -5 1 -10 -4 -10 -6 0 -11 5 -11 10 0 6 2 10 4 10 3 0 8 -4 11
-10z m67 -24 c7 4 8 2 4 -5 -9 -13 -26 -5 -25 12 0 9 2 8 6 -1 2 -6 10 -9 15
-6z m-38 -7 c-2 -4 -1 -9 3 -12 5 -2 1 -2 -7 1 -8 2 -21 5 -27 5 -7 0 -13 4
-13 9 0 4 11 7 24 6 14 -1 23 -5 20 -9z m2930 -35 c3 -8 2 -12 -4 -9 -6 3 -10
10 -10 16 0 14 7 11 14 -7z m-2876 -29 c-3 -3 -9 2 -12 12 -6 14 -5 15 5 6 7
-7 10 -15 7 -18z m2822 15 c0 -5 -5 -10 -11 -10 -5 0 -7 5 -4 10 3 6 8 10 11
10 2 0 4 -4 4 -10z m46 -12 c4 -7 3 -8 -4 -4 -7 4 -12 0 -12 -10 0 -10 -3 -15
-6 -11 -7 6 2 37 10 37 3 0 8 -5 12 -12z m-2830 -24 c-1 -8 -6 -17 -12 -21 -5
-4 -6 -4 -2 1 4 5 3 14 -2 21 -7 8 -5 12 4 12 8 0 13 -6 12 -13z m8 -52 c3 -5
-1 -9 -9 -9 -8 0 -12 4 -9 9 3 4 7 8 9 8 2 0 6 -4 9 -8z m-394 -82 c0 -5 -2
-10 -4 -10 -3 0 -8 5 -11 10 -3 6 -1 10 4 10 6 0 11 -4 11 -10z m3700 0 c-20
-13 -33 -13 -25 0 3 6 14 10 23 10 15 0 15 -2 2 -10z m-3372 -25 c-3 -3 -9 2
-12 12 -6 14 -5 15 5 6 7 -7 10 -15 7 -18z m-348 5 c0 -5 -5 -10 -11 -10 -5 0
-7 5 -4 10 3 6 8 10 11 10 2 0 4 -4 4 -10z m3739 -11 c-7 -4 -17 -5 -22 -2 -5
3 -7 0 -5 -8 3 -8 14 -13 24 -11 19 2 19 2 0 -12 -19 -15 -41 -12 -31 4 3 5 0
12 -5 15 -15 9 20 34 38 27 11 -4 11 -6 1 -13z m-3394 -29 c-1 -11 -5 -23 -10
-27 -4 -5 -5 -2 -1 5 4 7 2 12 -5 12 -8 0 -8 4 1 15 16 19 17 19 15 -5z m3421
-22 c5 -7 3 -8 -6 -3 -10 6 -12 4 -7 -8 3 -10 2 -17 -2 -17 -14 0 -21 28 -8
34 7 2 13 5 14 5 1 1 5 -4 9 -11z m-3443 -18 c3 -11 1 -18 -4 -14 -5 3 -9 12
-9 20 0 20 7 17 13 -6z m3447 -40 c0 -5 -8 -10 -17 -10 -15 0 -16 2 -3 10 19
12 20 12 20 0z m20 -20 c0 -5 -5 -10 -11 -10 -5 0 -7 5 -4 10 3 6 8 10 11 10
2 0 4 -4 4 -10z m-3820 -19 c0 -15 -32 -23 -44 -11 -8 8 -6 9 7 5 10 -4 17 -2
17 4 0 6 5 11 10 11 6 0 10 -4 10 -9z m30 -1 c0 -5 -4 -10 -10 -10 -5 0 -10 5
-10 10 0 6 5 10 10 10 6 0 10 -4 10 -10z m287 4 c-3 -3 -12 -4 -19 -1 -8 3 -5
6 6 6 11 1 17 -2 13 -5z m-33 -20 c3 -8 2 -12 -4 -9 -6 3 -10 10 -10 16 0 14
7 11 14 -7z m-10 -64 c-17 -33 -20 -35 -30 -18 -5 7 -3 8 6 3 8 -5 11 -3 8 6
-4 11 15 36 29 39 1 0 -5 -13 -13 -30z m3556 24 c0 -8 -19 -13 -24 -6 -3 5 1
9 9 9 8 0 15 -2 15 -3z m-3885 -24 c3 -5 1 -10 -4 -10 -6 0 -11 5 -11 10 0 6
2 10 4 10 3 0 8 -4 11 -10z m-25 -100 c0 -5 -2 -10 -4 -10 -3 0 -8 5 -11 10
-3 6 -1 10 4 10 6 0 11 -4 11 -10z m242 3 c-6 -2 -9 -10 -6 -15 4 -7 2 -8 -4
-4 -18 11 -14 26 6 25 10 0 12 -3 4 -6z m-242 -33 c0 -5 -4 -10 -10 -10 -5 0
-10 5 -10 10 0 6 5 10 10 10 6 0 10 -4 10 -10z m133 -77 c-5 -12 -3 -14 7 -8
9 5 11 4 6 -4 -4 -6 -12 -9 -17 -6 -12 8 -12 35 1 35 5 0 6 -7 3 -17z m-26
-34 c-18 -10 -18 -11 0 -25 17 -14 16 -14 -5 -4 -19 9 -21 14 -11 26 6 8 17
14 23 14 6 0 3 -5 -7 -11z m-98 -170 c-7 -4 -16 -6 -20 -3 -4 2 -7 -5 -6 -16
1 -11 5 -20 9 -20 4 0 8 -5 8 -11 0 -8 -4 -8 -13 0 -8 6 -24 9 -36 6 -19 -3
-21 -2 -11 10 6 8 19 11 27 8 11 -4 14 -3 9 6 -10 16 12 41 31 34 11 -5 12 -7
2 -14z m32 -12 c-6 -8 -7 -18 -3 -22 4 -5 2 -5 -5 -2 -6 4 -13 2 -15 -5 -3 -7
-7 -4 -12 7 -4 11 -4 16 0 13 3 -4 13 -1 21 7 18 19 29 20 14 2z m-53 -60 c6
-5 12 -15 12 -21 0 -6 -5 -3 -11 7 -5 9 -15 17 -21 17 -9 0 -9 -3 0 -12 17
-17 15 -24 -13 -42 -14 -9 -25 -12 -25 -7 0 5 9 13 20 16 11 3 20 10 20 15 0
4 -9 6 -20 3 -11 -3 -20 0 -20 6 0 5 8 8 18 5 15 -5 15 -4 -2 10 -18 14 -17
15 5 14 13 -1 30 -6 37 -11z m3982 -2 c0 -8 -2 -15 -4 -15 -2 0 -6 7 -10 15
-3 8 -1 15 4 15 6 0 10 -7 10 -15z m50 -15 c0 -5 -2 -10 -4 -10 -3 0 -8 5 -11
10 -3 6 -1 10 4 10 6 0 11 -4 11 -10z m-49 -30 c6 0 8 4 5 8 -3 5 1 9 9 9 20
0 19 -2 -9 -30 -17 -17 -23 -32 -19 -46 6 -24 14 -26 31 -9 17 17 15 33 -3 18
-10 -9 -15 -9 -15 -1 0 6 5 11 11 11 5 0 7 6 3 13 -6 9 -5 9 8 0 8 -7 18 -9
23 -5 4 4 2 -3 -4 -15 -9 -18 -9 -23 0 -23 18 0 5 -10 -20 -15 -31 -6 -51 4
-44 22 5 12 3 14 -8 8 -11 -7 -12 -6 -2 7 7 8 10 18 6 21 -3 4 -1 7 6 7 8 0
10 8 7 23 -3 12 -3 16 0 10 3 -7 10 -13 15 -13z m-3975 -5 c-1 -8 -5 -17 -8
-21 -5 -4 -4 16 1 34 3 9 9 -1 7 -13z m4024 -5 c0 -5 -5 -10 -11 -10 -5 0 -7
5 -4 10 3 6 8 10 11 10 2 0 4 -4 4 -10z m-4054 -17 c0 -10 5 -17 12 -15 8 1
11 -2 7 -8 -5 -8 -11 -8 -20 0 -11 9 -14 6 -12 -16 1 -15 -4 -29 -10 -31 -7
-3 -13 0 -13 7 0 6 5 8 10 5 6 -3 10 1 10 10 0 9 -4 14 -8 11 -4 -2 -8 4 -8
14 0 10 3 17 7 14 4 -2 9 3 13 11 7 20 14 19 12 -2z m4014 -78 c8 0 22 4 30
10 13 9 13 8 1 -7 -9 -13 -10 -18 -2 -18 7 0 9 -5 4 -12 -4 -7 -8 -22 -8 -33
0 -11 -6 -20 -12 -21 -26 -3 -28 -5 -13 -14 9 -5 19 -5 27 2 10 8 12 7 7 -6
-8 -20 -15 -20 -40 -1 -16 12 -17 16 -4 24 8 5 18 7 22 5 11 -7 10 8 -2 26 -5
8 -10 10 -10 4 0 -7 -8 -15 -17 -18 -14 -6 -14 -3 3 15 l19 22 -25 -7 c-18 -5
-21 -5 -11 3 13 8 13 12 0 27 -12 16 -12 17 1 9 8 -5 22 -10 30 -10z m-3996
-23 c3 -5 -1 -9 -9 -9 -8 0 -12 4 -9 9 3 4 7 8 9 8 2 0 6 -4 9 -8z m-30 -18
c3 -8 2 -12 -4 -9 -6 3 -10 1 -10 -6 0 -7 -2 -10 -5 -7 -5 5 4 38 10 38 2 0 6
-7 9 -16z m6 -28 c0 -2 -8 -10 -17 -17 -16 -13 -17 -12 -4 4 13 16 21 21 21
13z m14 -58 c-3 -4 -11 -5 -19 -1 -21 7 -19 12 4 10 11 0 18 -5 15 -9z m4016
2 c19 -12 21 -60 2 -53 -9 4 -10 9 -3 16 16 16 13 27 -5 27 -9 0 -12 -5 -8
-12 4 -7 3 -9 -1 -5 -11 9 -16 37 -7 37 4 0 14 -5 22 -10z m-4032 -45 c-3 -3
-9 2 -12 12 -6 14 -5 15 5 6 7 -7 10 -15 7 -18z m4038 -55 c0 -15 -4 -26 -7
-24 -4 2 -6 12 -4 22 1 9 -2 23 -8 30 -7 9 -6 11 5 7 10 -4 15 -18 14 -35z
m-188 -625 c-3 -3 -9 2 -12 12 -6 14 -5 15 5 6 7 -7 10 -15 7 -18z m-28 -32
c-14 -10 -19 -21 -15 -33 3 -10 1 -21 -4 -25 -7 -4 -9 1 -5 12 5 17 5 17 -9 1
-8 -10 -18 -18 -22 -18 -4 0 -2 6 4 14 9 11 6 14 -14 14 -18 0 -23 -4 -16 -12
7 -8 4 -12 -9 -12 -14 0 -16 4 -9 17 12 22 12 32 0 24 -5 -3 -13 0 -17 6 -4 8
-3 9 4 5 7 -4 12 -2 12 5 0 7 6 5 14 -6 17 -24 58 -28 51 -6 -2 9 0 23 6 31 8
11 9 9 3 -10 -6 -22 -5 -24 10 -11 9 8 14 21 11 29 -4 12 -3 13 10 2 14 -11
13 -14 -5 -27z m-110 13 c-7 -7 -13 -7 -20 0 -6 6 -3 10 10 10 13 0 16 -4 10
-10z m60 -18 c0 -15 -15 -8 -28 12 -12 19 -11 20 8 8 11 -7 20 -16 20 -20z
m-77 -15 c17 -22 17 -22 0 -16 -16 6 -16 5 -4 -10 9 -11 10 -17 2 -17 -11 0
-15 13 -12 38 2 16 -7 15 -25 -3 -18 -17 -34 -20 -34 -4 0 5 4 8 9 5 5 -3 15
2 22 11 12 14 11 15 -8 9 -12 -4 -24 -3 -26 1 -3 5 9 9 27 9 22 0 37 -7 49
-23z m-87 -20 c-3 -14 -10 -29 -15 -32 -6 -4 -6 -12 -2 -20 7 -11 13 -7 25 15
8 16 15 25 16 20 0 -5 6 -4 13 2 9 8 16 6 25 -8 7 -12 8 -21 2 -25 -6 -3 -10
-12 -10 -18 1 -7 9 -2 19 11 19 22 38 31 26 12 -3 -5 -1 -10 4 -10 6 0 11 5
11 10 0 6 5 10 10 10 6 0 5 -8 -2 -19 -9 -14 -16 -17 -25 -10 -9 8 -11 5 -10
-10 1 -13 6 -20 14 -17 7 3 13 1 13 -5 0 -6 -8 -9 -17 -7 -10 2 -17 9 -16 15
1 6 -9 11 -22 11 -14 0 -22 -4 -19 -9 9 -16 61 -39 69 -31 5 4 5 2 2 -5 -4 -6
-1 -14 5 -16 8 -3 6 -6 -4 -6 -10 -1 -18 4 -18 9 0 6 -4 10 -8 10 -7 0 -11
-18 -12 -63 -1 -9 -6 -15 -11 -11 -6 3 -8 12 -5 20 6 17 -10 19 -20 2 -4 -6 3
-19 16 -30 12 -10 17 -18 11 -18 -7 0 -16 -10 -21 -22 l-9 -23 0 23 c-1 12 -4
21 -8 21 -20 -3 -33 2 -30 12 1 6 -3 13 -8 15 -6 2 -11 -5 -12 -16 -1 -11 4
-20 11 -20 23 0 40 -28 27 -43 -6 -8 -7 -17 -3 -22 4 -4 -3 -2 -15 4 -25 13
-29 26 -11 37 8 5 9 2 5 -9 -7 -19 8 -23 19 -6 12 20 -14 35 -36 21 -11 -6
-23 -12 -27 -12 -5 0 -1 5 7 10 31 19 6 84 -28 73 -14 -4 -14 -3 -3 5 8 6 20
8 27 5 9 -3 12 2 9 16 -5 25 -1 26 29 6 23 -15 25 -15 45 14 21 30 21 30 1 28
-12 -1 -18 -7 -16 -14 7 -18 -12 -27 -29 -13 -8 7 -13 24 -11 40 2 16 0 34 -5
41 -5 8 -1 21 9 32 9 11 16 21 15 23 -5 7 -3 24 2 24 3 0 3 -12 1 -27z m178
-45 c-3 -4 -11 -5 -19 -1 -21 7 -19 12 4 10 11 0 18 -5 15 -9z m-18 -19 c3 -6
1 -16 -5 -22 -9 -9 -11 -8 -6 6 4 10 2 17 -4 17 -6 0 -11 -5 -11 -12 0 -6 -3
-9 -6 -5 -7 7 4 27 16 27 5 0 12 -5 16 -11z m-21 -39 c3 -5 1 -10 -4 -10 -6 0
-11 5 -11 10 0 6 2 10 4 10 3 0 8 -4 11 -10z m-25 -54 c0 -2 -7 -9 -15 -16
-13 -11 -14 -10 -9 4 5 14 24 23 24 12z m-164 -48 c4 -6 2 -14 -5 -16 -10 -3
-10 -6 -1 -12 8 -5 7 -9 -5 -13 -9 -4 -13 -3 -10 3 3 6 1 10 -4 10 -6 0 -11
-5 -11 -12 0 -6 -3 -8 -7 -4 -4 4 3 16 17 28 17 14 19 18 7 14 -11 -3 -16 -2
-12 4 8 13 22 13 31 -2z m34 -98 c13 -8 13 -10 -2 -10 -9 0 -20 5 -23 10 -8
13 5 13 25 0z m-2794 -750 c-1 -37 -16 -56 -24 -31 -2 6 1 11 8 11 6 0 8 5 4
11 -4 8 -9 8 -17 0 -6 -6 -15 -11 -21 -11 -5 0 -2 6 9 13 11 9 15 19 10 27 -5
8 -4 11 3 6 6 -3 13 -2 17 4 10 17 12 12 11 -30z m-82 -12 c-3 -4 0 -8 5 -8 6
0 11 -4 11 -10 0 -16 -14 -12 -27 8 -9 15 -8 19 3 19 7 0 11 -4 8 -9z m-96
-20 c-2 -7 3 -12 10 -10 10 2 10 -2 2 -18 -12 -23 -22 -27 -14 -6 3 8 1 17 -5
21 -14 8 -14 25 -1 25 6 0 9 -6 8 -12z m72 -23 c-10 -12 -9 -16 4 -21 12 -5
14 -10 6 -19 -8 -9 -8 -15 0 -20 5 -3 10 -1 10 6 0 7 3 10 6 6 11 -10 -6 -26
-22 -20 -9 3 -12 12 -9 24 5 14 2 17 -9 13 -9 -3 -12 -12 -9 -22 4 -9 3 -14
-1 -10 -4 3 -8 12 -10 20 -1 7 -5 19 -9 26 -5 7 -4 12 2 12 6 0 11 -4 11 -10
0 -5 5 -10 10 -10 6 0 9 3 9 8 -3 19 2 32 12 32 8 0 8 -5 -1 -15z m2753 -12
c-6 -16 -5 -16 11 -4 12 10 20 11 27 4 8 -8 6 -14 -8 -21 -14 -8 -24 -6 -43
10 -14 11 -20 17 -13 14 6 -4 14 -2 18 4 10 16 15 12 8 -7z m-2667 -19 c-1 -8
-6 -17 -12 -21 -5 -4 -6 -4 -2 1 4 5 3 14 -2 21 -7 8 -5 12 4 12 8 0 13 -6 12
-13z m2651 -28 c0 -8 -7 -12 -15 -8 -10 3 -13 1 -8 -6 3 -6 1 -14 -5 -18 -7
-4 -9 -3 -5 4 3 6 2 14 -4 17 -8 5 -8 11 0 20 13 16 37 10 37 -9z m-439 -18
c16 -16 15 -25 -3 -25 -8 0 -12 4 -9 9 3 4 0 8 -7 8 -6 0 -9 -8 -6 -20 3 -11
1 -22 -4 -25 -4 -3 -6 -12 -2 -20 3 -9 -1 -15 -10 -15 -12 0 -14 9 -11 40 5
41 0 47 -26 29 -13 -10 -13 -10 1 -6 9 3 16 -1 16 -9 0 -7 -4 -11 -9 -8 -4 3
-5 -2 -2 -10 3 -9 1 -16 -5 -16 -6 0 -10 3 -10 8 3 19 -2 33 -11 27 -15 -9 9
-48 26 -41 7 3 13 2 13 -2 -3 -20 2 -33 11 -27 5 3 23 -2 40 -12 30 -17 39
-33 19 -33 -5 0 -7 -5 -3 -12 4 -7 3 -8 -5 -4 -6 4 -9 11 -6 15 2 5 -4 16 -15
26 -17 15 -22 16 -37 4 -14 -12 -16 -12 -8 0 5 10 4 12 -3 7 -9 -5 -9 -13 -2
-27 6 -10 7 -19 3 -18 -20 3 -27 -2 -13 -11 8 -5 11 -12 7 -17 -5 -4 -12 -2
-16 6 -7 10 -9 10 -14 -1 -3 -10 3 -14 23 -14 21 0 27 3 22 15 -5 13 -3 14 9
4 13 -10 16 -10 16 2 0 8 -4 12 -9 9 -4 -3 -8 -3 -8 0 0 2 -3 13 -7 23 -6 17
-6 17 14 0 27 -24 24 -41 -12 -69 -16 -12 -26 -17 -21 -10 4 6 3 12 -2 12 -10
0 -39 -31 -34 -37 1 -2 -1 -11 -7 -20 -7 -14 -12 -15 -24 -5 -12 10 -17 10
-23 1 -5 -9 -11 -7 -21 6 -9 14 -13 15 -13 4 -1 -9 -4 -8 -12 5 -9 16 -7 22
10 34 12 8 22 19 22 24 0 6 -7 5 -15 -2 -12 -10 -19 -10 -27 -2 -7 7 -8 12 -2
12 5 0 2 5 -6 11 -13 9 -13 10 0 6 8 -2 14 -10 13 -16 -4 -16 12 -14 27 4 7 8
18 15 24 15 6 0 5 -4 -3 -9 -9 -6 -10 -11 -2 -15 11 -7 47 52 37 61 -3 3 -8
-2 -12 -11 -3 -9 -10 -16 -16 -16 -5 0 -6 5 -3 10 3 6 2 10 -3 10 -6 0 -12 -7
-16 -15 -6 -17 -26 -20 -26 -4 0 5 4 8 9 5 5 -3 12 1 15 10 3 8 13 14 22 12 9
-2 19 3 22 11 3 10 0 11 -9 5 -9 -5 -7 3 5 20 17 26 17 28 1 23 -9 -4 -19 -7
-21 -7 -3 0 -2 -5 2 -12 5 -7 3 -8 -6 -3 -10 6 -12 4 -7 -8 3 -10 5 -17 3 -17
-3 0 -11 -3 -20 -6 -9 -3 -16 -1 -16 6 0 6 5 8 10 5 6 -3 10 -2 10 4 0 5 3 18
6 28 5 17 5 17 -10 -1 -14 -18 -15 -18 -13 2 0 11 5 18 9 16 4 -3 8 0 8 5 0 6
5 11 11 11 5 0 7 -4 4 -10 -3 -5 1 -10 10 -10 9 0 14 4 11 8 -8 13 9 31 33 35
12 2 26 8 29 14 6 10 28 17 68 22 5 0 15 -4 22 -11z m-253 -78 c-3 -5 -12 -10
-18 -10 -7 0 -6 4 3 10 19 12 23 12 15 0z m-34 -17 c8 -9 9 -14 2 -10 -6 4
-13 1 -16 -5 -3 -7 -4 -3 -4 10 1 26 1 26 18 5z m-1338 -12 c3 -13 0 -18 -7
-15 -7 3 -13 11 -13 19 0 22 14 18 20 -4z m1399 10 c8 11 9 11 6 1 -4 -16 -22
-18 -24 -2 -2 7 -1 6 3 -1 4 -8 8 -7 15 2z m-122 -21 c0 -5 -5 -10 -11 -10 -5
0 -7 5 -4 10 3 6 8 10 11 10 2 0 4 -4 4 -10z m330 -15 c7 -8 8 -15 2 -15 -5 0
-15 7 -22 15 -7 8 -8 15 -2 15 5 0 15 -7 22 -15z m-1560 1 c0 -2 -8 -10 -17
-17 -16 -13 -17 -12 -4 4 13 16 21 21 21 13z m1360 -5 c0 -5 -7 -11 -14 -14
-10 -4 -13 -1 -9 9 6 15 23 19 23 5z m-153 -16 c0 -8 -4 -12 -9 -9 -5 3 -6 10
-3 15 9 13 12 11 12 -6z m-1300 -14 c-10 -12 -9 -14 4 -9 9 4 16 1 16 -7 0
-10 -5 -11 -19 -4 -10 6 -15 15 -12 21 5 8 1 9 -10 5 -9 -4 -15 -3 -11 2 3 6
14 9 25 8 15 -1 17 -4 7 -16z m1403 -16 c0 -5 -5 -3 -10 5 -5 8 -10 20 -10 25
0 6 5 3 10 -5 5 -8 10 -19 10 -25z m-1446 9 c3 -8 2 -12 -4 -9 -6 3 -10 1 -10
-6 0 -7 -2 -10 -5 -7 -5 5 4 38 10 38 2 0 6 -7 9 -16z m1484 -50 c-4 -3 -12 5
-18 18 -12 22 -12 22 6 6 10 -10 15 -20 12 -24z m-1373 6 c10 -11 14 -20 9
-20 -5 0 -15 9 -22 20 -7 11 -11 20 -9 20 2 0 12 -9 22 -20z m-27 -15 c-3 -3
-9 2 -12 12 -6 14 -5 15 5 6 7 -7 10 -15 7 -18z m1322 18 c0 -5 -5 -15 -10
-23 -7 -12 -9 -10 -7 8 1 19 17 33 17 15z m-1203 -30 c0 -10 -4 -10 -16 -1 -9
7 -18 13 -20 15 -2 1 5 1 16 0 11 0 20 -7 20 -14z m60 -3 c1 -11 -2 -20 -7
-20 -6 0 -7 17 -1 38 3 8 7 -1 8 -18z m998 10 c3 -5 1 -10 -4 -10 -6 0 -11 5
-11 10 0 6 2 10 4 10 3 0 8 -4 11 -10z m70 0 c3 -6 -1 -7 -9 -4 -18 7 -21 14
-7 14 6 0 13 -4 16 -10z m-129 -20 c0 -12 -4 -16 -9 -11 -5 5 -6 14 -3 20 10
15 12 14 12 -9z m-1199 -16 c-9 -9 -28 6 -21 18 4 6 10 6 17 -1 6 -6 8 -13 4
-17z m166 11 c-3 -9 -8 -14 -10 -11 -3 3 -2 9 2 15 9 16 15 13 8 -4z m207 12
c0 -2 -10 -12 -22 -23 l-23 -19 19 23 c18 21 26 27 26 19z m915 -7 c-3 -5 -12
-10 -18 -10 -7 0 -6 4 3 10 19 12 23 12 15 0z m-1096 -51 c-8 -5 -9 -9 -3 -9
20 0 34 23 23 37 -8 9 -8 13 0 13 6 0 11 -4 11 -10 0 -5 6 -8 13 -6 6 1 9 1 4
-1 -4 -3 -4 -9 -1 -15 3 -5 15 -2 27 9 12 10 9 3 -7 -14 -18 -20 -35 -30 -48
-28 -27 6 -31 10 -34 40 -2 23 -1 24 13 9 14 -13 14 -17 2 -25z m226 32 c3 -5
2 -12 -3 -15 -5 -3 -9 1 -9 9 0 17 3 19 12 6z m638 -16 c-7 -21 -12 -19 -10 4
0 11 5 18 9 15 4 -3 5 -11 1 -19z m427 21 c0 -2 -8 -10 -17 -17 -16 -13 -17
-12 -4 4 13 16 21 21 21 13z m-370 -21 c-14 -17 -30 -20 -30 -4 0 5 4 8 9 4 5
-3 12 -1 16 5 3 5 9 10 12 10 3 0 0 -7 -7 -15z m53 8 c-7 -2 -19 -2 -25 0 -7
3 -2 5 12 5 14 0 19 -2 13 -5z m-776 -25 c-3 -8 -6 -5 -6 6 -1 11 2 17 5 13 3
-3 4 -12 1 -19z m253 12 c0 -5 -2 -10 -4 -10 -3 0 -8 5 -11 10 -3 6 -1 10 4
10 6 0 11 -4 11 -10z m134 -6 c3 -8 2 -12 -4 -9 -6 3 -10 10 -10 16 0 14 7 11
14 -7z m120 8 c3 -5 -1 -9 -9 -9 -8 0 -12 4 -9 9 3 4 7 8 9 8 2 0 6 -4 9 -8z
m-317 -17 c0 -8 -4 -12 -9 -9 -5 3 -6 10 -3 15 9 13 12 11 12 -6z m-155 -13
c-4 -12 1 -11 24 3 16 9 22 11 13 4 -9 -8 -17 -18 -17 -24 -2 -12 -51 -15 -58
-4 -6 11 16 36 32 36 7 0 10 -7 6 -15z m70 6 c-7 -7 -12 -17 -12 -22 1 -6 10
0 21 14 17 20 20 21 17 6 -1 -10 3 -21 10 -23 6 -3 10 1 9 9 -2 7 -2 10 0 5 3
-4 10 -4 16 0 7 3 4 -3 -6 -14 -9 -11 -14 -23 -10 -26 3 -4 2 -7 -4 -7 -5 0
-13 3 -17 8 -4 4 -11 7 -14 8 -4 0 -15 4 -24 8 -14 6 -15 11 -5 27 6 10 16 19
21 19 6 0 5 -5 -2 -12z m239 -12 c-10 -12 -9 -14 11 -12 13 1 30 6 37 10 26
16 32 -11 7 -28 -24 -15 -30 -14 -27 7 0 4 -3 7 -9 7 -5 0 -10 -4 -10 -8 0 -5
-17 -8 -37 -7 -27 1 -40 7 -51 26 -13 22 -13 22 1 6 10 -12 17 -15 22 -7 4 6
15 8 26 5 12 -4 21 -1 25 10 4 9 9 14 12 11 3 -3 -1 -12 -7 -20z m89 14 c0 -5
-2 -10 -4 -10 -3 0 -8 5 -11 10 -3 6 -1 10 4 10 6 0 11 -4 11 -10z m51 -8 c-7
-2 -18 1 -23 6 -8 8 -4 9 13 5 13 -4 18 -8 10 -11z m100 4 c-8 -10 -9 -16 -1
-21 5 -3 10 -1 10 6 0 8 3 9 13 0 8 -6 17 -8 20 -4 4 3 -1 12 -11 20 -15 13
-15 13 6 3 15 -7 28 -8 41 -1 14 8 22 7 30 -3 14 -17 2 -29 -16 -14 -11 9 -17
7 -29 -10 -14 -20 -44 -25 -60 -10 -9 10 -35 -3 -28 -13 3 -5 1 -9 -5 -9 -5 0
-13 5 -16 10 -3 6 -2 10 4 10 6 0 8 7 5 15 -4 9 0 15 10 15 9 0 16 5 16 10 0
6 5 10 11 10 8 0 8 -4 0 -14z m-337 -11 c3 -8 1 -15 -4 -15 -6 0 -10 7 -10 15
0 8 2 15 4 15 2 0 6 -7 10 -15z m219 -9 c8 5 8 2 0 -6 -7 -8 -20 -15 -28 -16
-12 -2 -13 2 -3 19 7 14 13 17 16 9 2 -6 9 -9 15 -6z m372 4 c-3 -5 -11 -10
-16 -10 -6 0 -7 5 -4 10 3 6 11 10 16 10 6 0 7 -4 4 -10z"/>
<path d="M2048 4594 c-8 -7 2 -44 12 -44 4 0 13 7 21 16 10 13 10 17 -2 25
-16 10 -24 11 -31 3z"/>
<path d="M2266 4593 c-13 -13 -5 -25 9 -13 10 9 15 9 15 1 0 -6 -6 -11 -12
-11 -7 0 -5 -5 5 -11 21 -12 30 -7 32 19 1 18 -35 29 -49 15z"/>
<path d="M2157 4577 c-3 -8 -1 -19 5 -25 14 -14 1 -33 -17 -25 -9 3 -15 -1
-16 -8 0 -8 -2 -22 -4 -32 -2 -11 1 -16 8 -14 7 2 11 13 9 23 -2 16 -1 16 7 4
7 -9 7 -18 1 -24 -6 -6 -10 -14 -10 -20 0 -6 5 -5 12 2 15 15 28 16 28 2 0 -5
-5 -9 -11 -7 -6 1 -13 -3 -15 -8 -2 -6 5 -11 16 -12 11 -1 20 4 21 10 0 7 2
20 4 30 2 12 -1 17 -10 13 -10 -3 -12 0 -8 11 5 12 3 14 -8 8 -9 -5 -8 -2 3
11 18 21 19 47 1 65 -7 7 -12 6 -16 -4z"/>
<path d="M2193 4570 c1 -10 6 -21 13 -24 6 -2 12 -17 12 -31 0 -17 -3 -23 -8
-14 -5 6 -5 19 -2 28 5 14 4 14 -11 2 -15 -12 -16 -16 -3 -30 7 -9 12 -25 10
-37 -3 -16 2 -20 18 -19 12 1 24 7 26 14 2 6 0 11 -5 10 -4 -1 -15 -1 -23 0
-13 1 -13 2 0 11 18 11 19 37 3 72 -16 34 -32 44 -30 18z"/>
<path d="M2236 4571 c-14 -22 10 -47 38 -42 5 1 17 -6 27 -15 17 -15 19 -15
25 0 3 9 11 13 16 10 5 -4 -3 -15 -19 -25 -15 -10 -24 -19 -19 -19 6 0 0 -9
-12 -20 -28 -26 -28 -35 -1 -37 17 -2 19 1 11 9 -9 9 -5 16 16 30 15 10 23 18
18 18 -6 0 0 9 12 20 12 12 22 24 22 29 0 11 -32 10 -46 0 -7 -6 -16 -3 -24 6
-7 9 -21 13 -31 10 -9 -3 -20 -1 -24 4 -4 7 1 8 12 4 16 -6 16 -5 4 10 -16 20
-18 20 -25 8z"/>
<path d="M2040 4508 c0 -8 34 -28 47 -28 4 0 1 5 -7 10 -8 5 -10 10 -5 10 6 0
17 -5 25 -10 8 -5 10 -10 4 -10 -6 0 -21 -8 -33 -19 -18 -16 -19 -20 -6 -31
19 -16 46 4 38 28 -4 14 -3 14 5 3 6 -8 8 -21 4 -29 -3 -10 -1 -13 6 -8 7 4
13 2 13 -3 1 -6 2 -15 3 -20 0 -6 7 -16 14 -23 21 -20 7 41 -16 72 -11 14 -18
34 -16 45 3 18 -2 20 -36 20 -22 0 -40 -3 -40 -7z m50 -58 c0 -5 -5 -10 -11
-10 -5 0 -7 5 -4 10 3 6 8 10 11 10 2 0 4 -4 4 -10z"/>
<path d="M2240 4512 c0 -2 8 -11 18 -20 10 -10 12 -13 5 -8 -9 6 -18 4 -26 -4
-9 -9 -9 -11 0 -6 17 9 27 -12 13 -29 -6 -7 -19 -14 -28 -14 -45 -3 -62 -6
-62 -13 0 -4 5 -8 10 -8 6 0 10 -5 10 -11 0 -5 -5 -7 -11 -3 -8 5 -8 1 0 -14
17 -33 30 -35 27 -5 -3 27 8 43 29 43 6 0 4 -4 -3 -9 -13 -8 -14 -17 -10 -81
2 -25 -1 -34 -11 -32 -8 2 -11 -3 -8 -12 3 -8 -1 -20 -9 -26 -8 -7 -14 -8 -14
-3 0 15 -33 12 -54 -6 -11 -9 -16 -10 -12 -3 10 17 -9 15 -24 -3 -7 -8 -8 -20
-3 -27 4 -7 8 -24 8 -38 1 -32 28 -33 30 -2 1 16 -3 21 -12 18 -8 -3 -11 -1
-8 4 3 6 13 10 22 10 9 0 13 6 10 15 -8 19 10 30 27 16 10 -8 20 -6 40 10 23
18 28 16 25 -7 0 -4 11 -14 26 -24 15 -10 22 -20 17 -24 -5 -3 -13 2 -16 11
-5 12 -10 13 -18 5 -6 -6 -18 -8 -27 -5 -12 3 -11 2 2 -7 10 -7 21 -9 24 -6 4
3 12 1 19 -5 15 -12 34 -4 34 14 0 7 -9 18 -20 25 -12 7 -17 18 -13 27 3 10 0
15 -8 13 -9 -2 -13 4 -11 17 2 11 3 27 4 35 0 8 5 21 11 28 5 7 7 15 3 19 -3
3 -6 0 -6 -8 -1 -10 -4 -8 -11 4 -8 14 -8 22 1 30 8 9 10 8 5 -4 -5 -14 0 -16
32 -14 21 1 44 -2 51 -7 8 -7 12 -7 12 0 0 6 -5 14 -10 17 -8 5 -7 11 0 20 7
8 9 19 5 24 -4 7 1 8 11 4 11 -4 15 -3 10 5 -10 16 11 24 34 12 29 -15 25 4
-5 24 -27 18 -36 20 -34 9 3 -21 -2 -33 -13 -30 -7 1 -13 -5 -14 -13 -1 -23
-15 -50 -25 -50 -4 0 -6 6 -3 13 3 8 -4 13 -17 14 -17 2 -18 -1 -9 -13 8 -8 8
-14 2 -14 -22 0 -19 29 6 57 36 39 36 68 0 68 -16 1 -28 -1 -28 -3z m-135
-290 c-3 -3 -11 0 -18 7 -9 10 -8 11 6 5 10 -3 15 -9 12 -12z"/>
<path d="M2080 4410 c-8 -5 -11 -13 -6 -17 5 -4 11 -2 13 5 3 8 11 5 24 -10
18 -22 19 -22 17 -3 -5 32 -23 41 -48 25z"/>
<path d="M2105 4360 c3 -4 -2 -10 -10 -14 -8 -3 -15 -10 -15 -16 0 -7 6 -7 21
0 16 9 25 8 40 -6 10 -9 29 -18 43 -19 19 -2 24 2 24 21 0 14 -3 22 -6 20 -3
-3 -12 0 -20 6 -16 14 -85 21 -77 8z m59 -21 c20 3 25 -1 19 -16 -6 -15 -7
-15 -13 1 -3 10 -9 17 -13 17 -22 -3 -27 0 -21 10 5 8 9 8 14 -1 4 -6 10 -11
14 -11z"/>
<path d="M2090 4285 c0 -1 6 -8 14 -14 10 -8 16 -8 25 3 9 11 7 14 -14 14 -14
0 -25 -2 -25 -3z"/>
<path d="M2162 4158 c-19 -19 -14 -33 6 -16 9 9 24 13 32 11 13 -4 13 -3 0 6
-19 14 -23 14 -38 -1z"/>
<path d="M2230 4130 c0 -5 5 -10 10 -10 6 0 10 5 10 10 0 6 -4 10 -10 10 -5 0
-10 -4 -10 -10z"/>
<path d="M2125 4122 c-3 -3 -15 -6 -27 -7 -12 -1 -23 -6 -25 -12 -2 -6 4 -10
14 -9 10 0 17 -5 16 -11 -4 -16 9 -17 25 -1 17 17 15 28 -5 22 -14 -5 -15 -4
-4 4 10 7 21 6 37 -5 21 -13 23 -13 21 5 -1 13 -8 20 -24 20 -12 0 -25 -3 -28
-6z"/>
<path d="M2310 4079 c0 -5 5 -7 10 -4 6 3 10 8 10 11 0 2 -4 4 -10 4 -5 0 -10
-5 -10 -11z"/>
<path d="M3716 4241 c-18 -19 -15 -41 5 -41 19 0 49 44 36 52 -18 11 -22 10
-41 -11z m22 -10 c-7 -11 -16 -17 -21 -14 -4 3 0 11 10 19 24 18 25 17 11 -5z"/>
<path d="M3735 4160 c3 -5 8 -10 11 -10 2 0 4 5 4 10 0 6 -5 10 -11 10 -5 0
-7 -4 -4 -10z"/>
<path d="M3792 4153 c4 -20 44 -25 59 -7 6 7 18 10 27 8 14 -5 14 -4 -1 6 -14
9 -22 9 -33 -1 -11 -9 -18 -9 -26 -1 -17 17 -30 15 -26 -5z"/>
<path d="M3810 4120 c0 -11 22 -18 38 -13 21 8 13 21 -13 21 -14 0 -25 -4 -25
-8z"/>
<path d="M3875 4080 c3 -5 8 -10 11 -10 2 0 4 5 4 10 0 6 -5 10 -11 10 -5 0
-7 -4 -4 -10z"/>
<path d="M2360 4005 c-10 -12 -10 -15 0 -15 9 0 8 -6 -4 -19 -15 -17 -15 -19
1 -32 15 -12 16 -12 10 3 -3 10 -1 23 6 30 14 15 19 48 7 48 -4 0 -13 -7 -20
-15z"/>
<path d="M825 3680 c3 -5 8 -10 11 -10 2 0 4 5 4 10 0 6 -5 10 -11 10 -5 0 -7
-4 -4 -10z"/>
<path d="M915 3601 c8 -14 -15 -25 -27 -13 -7 7 -17 5 -30 -8 -23 -21 -17 -39
12 -37 23 1 25 8 8 27 -11 12 -10 12 3 2 12 -9 20 -8 37 4 21 15 28 10 23 -18
0 -5 6 -8 14 -8 8 0 15 5 15 11 0 5 5 7 11 3 6 -3 -2 -14 -20 -25 -32 -19 -42
-35 -16 -25 8 3 21 -1 29 -9 12 -12 16 -12 25 -1 8 10 9 16 1 21 -5 3 -10 1
-10 -5 0 -6 -5 -8 -11 -5 -6 5 -4 12 7 20 20 14 12 50 -10 42 -8 -3 -22 3 -32
14 -17 19 -40 27 -29 10z"/>
<path d="M793 3559 c3 -9 1 -21 -5 -27 -6 -6 -1 -9 17 -9 15 0 23 2 18 6 -5 3
-15 15 -22 26 -8 12 -11 14 -8 4z"/>
<path d="M903 3551 c-9 -11 -19 -18 -23 -16 -3 2 -12 -5 -18 -16 -11 -17 -10
-20 5 -17 10 2 25 14 34 26 9 13 19 19 23 14 3 -5 -2 -13 -11 -16 -12 -5 -13
-10 -5 -18 6 -6 8 -18 5 -27 -4 -9 -2 -13 2 -8 5 4 9 17 11 30 1 12 3 22 4 22
2 0 4 10 5 23 3 27 -10 28 -32 3z"/>
<path d="M1035 3549 c-11 -17 1 -21 15 -4 8 9 8 15 2 15 -6 0 -14 -5 -17 -11z"/>
<path d="M750 3530 c0 -5 5 -10 10 -10 6 0 10 5 10 10 0 6 -4 10 -10 10 -5 0
-10 -4 -10 -10z"/>
<path d="M756 3449 c-11 -21 -22 -36 -26 -34 -4 3 -13 -1 -19 -9 -9 -11 -7
-13 12 -13 16 0 28 10 41 38 16 32 22 37 37 29 14 -8 17 -6 16 9 -2 34 -41 22
-61 -20z"/>
<path d="M822 3440 c-13 -21 -22 -26 -29 -19 -12 12 -33 4 -33 -12 0 -6 4 -8
9 -5 12 8 41 -3 41 -15 0 -6 -8 -6 -19 0 -10 6 -21 8 -24 4 -15 -15 -67 -12
-76 5 -5 9 -13 14 -17 10 -4 -4 -2 -14 5 -22 9 -11 9 -15 -1 -19 -7 -2 -9 -8
-5 -13 4 -5 12 -2 17 6 5 8 13 11 17 6 4 -5 2 -11 -4 -13 -7 -3 -23 -13 -35
-23 l-22 -17 27 0 c15 0 24 3 21 8 -3 5 -2 9 3 10 4 0 17 2 27 4 11 2 27 0 36
-5 9 -5 24 -4 35 3 18 10 19 9 6 -7 -8 -9 -21 -14 -29 -11 -9 3 -12 0 -9 -8 3
-8 1 -20 -4 -28 -8 -12 -10 -12 -8 1 4 36 -2 49 -21 47 -11 -1 -21 -4 -21 -7
-4 -15 -5 -66 -2 -75 5 -15 43 -16 43 -1 0 6 15 28 33 48 52 59 57 67 48 72
-13 8 -10 57 3 62 11 4 20 44 10 44 -2 0 -12 -13 -22 -30z m-16 -76 c18 -14
18 -15 -4 -4 -27 13 -45 4 -22 -10 8 -6 11 -10 5 -10 -5 0 -17 5 -25 10 -13 9
-13 11 0 20 20 13 23 13 46 -6z m-66 -4 c0 -5 -4 -10 -10 -10 -5 0 -10 5 -10
10 0 6 5 10 10 10 6 0 10 -4 10 -10z m0 -60 c0 -5 -8 -10 -17 -10 -15 0 -16 2
-3 10 19 12 20 12 20 0z m0 -40 c0 -5 -7 -7 -15 -4 -8 4 -15 8 -15 10 0 2 7 4
15 4 8 0 15 -4 15 -10z"/>
<path d="M785 3440 c3 -5 10 -10 16 -10 5 0 9 5 9 10 0 6 -7 10 -16 10 -8 0
-12 -4 -9 -10z"/>
<path d="M833 3395 c0 -21 2 -23 13 -14 11 9 11 15 3 25 -15 19 -16 18 -16
-11z"/>
<path d="M955 3399 c-4 -5 -13 -8 -21 -5 -8 3 -14 1 -14 -4 0 -18 20 -21 41
-7 12 9 16 18 10 21 -5 4 -13 1 -16 -5z"/>
<path d="M870 3275 c0 -8 5 -15 10 -15 6 0 10 7 10 15 0 8 -4 15 -10 15 -5 0
-10 -7 -10 -15z"/>
<path d="M630 3230 c0 -5 5 -10 10 -10 6 0 10 5 10 10 0 6 -4 10 -10 10 -5 0
-10 -4 -10 -10z"/>
<path d="M726 3189 c3 -5 15 -7 27 -3 20 6 20 5 -3 -14 -24 -19 -37 -21 -70
-8 -11 5 -16 0 -17 -15 -2 -17 1 -18 13 -9 14 12 20 3 15 -23 -1 -5 4 -7 11
-4 7 2 12 13 10 23 -2 14 0 15 6 6 7 -10 11 -10 21 2 7 8 18 13 25 10 9 -3 13
3 12 18 -1 17 -8 23 -29 25 -16 1 -25 -2 -21 -8z"/>
<path d="M840 3150 c0 -5 5 -10 11 -10 5 0 7 5 4 10 -3 6 -8 10 -11 10 -2 0
-4 -4 -4 -10z"/>
<path d="M753 3125 c0 -21 2 -23 13 -14 11 9 11 15 3 25 -15 19 -16 18 -16
-11z"/>
<path d="M627 3122 c-9 -10 -15 -28 -12 -41 2 -13 0 -31 -5 -41 -6 -11 -4 -24
6 -38 9 -13 11 -22 5 -22 -6 0 -11 4 -11 8 0 5 -6 16 -13 26 -12 16 -17 17
-36 6 l-23 -12 21 -14 c12 -9 25 -12 31 -9 5 3 7 0 4 -9 -5 -12 0 -14 22 -10
38 7 40 11 20 33 -10 11 -15 25 -10 32 4 7 8 28 8 47 1 29 5 36 23 37 13 1 26
5 30 10 5 4 1 6 -8 2 -9 -3 -21 -1 -26 4 -6 6 -16 3 -26 -9z m-37 -116 c0 -3
-4 -8 -10 -11 -5 -3 -10 -1 -10 4 0 6 5 11 10 11 6 0 10 -2 10 -4z"/>
<path d="M720 3115 c-7 -9 -21 -13 -31 -10 -9 3 -21 1 -24 -6 -6 -8 -9 -8 -15
1 -5 7 -7 2 -7 -14 0 -25 1 -26 18 -10 10 9 22 13 28 10 5 -4 22 5 38 19 15
13 23 25 17 25 -6 0 -17 -7 -24 -15z"/>
<path d="M665 3070 c-3 -5 -3 -14 0 -20 3 -5 2 -17 -3 -26 -6 -11 -11 -13 -16
-5 -4 6 -2 11 3 11 6 0 11 5 11 10 0 16 -17 12 -24 -6 -4 -9 -1 -23 5 -30 12
-15 31 -19 27 -6 -1 4 6 19 16 34 17 26 15 48 -4 48 -5 0 -12 -4 -15 -10z"/>
<path d="M545 2920 c-10 -11 -13 -20 -8 -20 13 0 38 29 31 35 -3 3 -13 -4 -23
-15z"/>
<path d="M4550 2545 c7 -9 15 -13 17 -11 7 7 -7 26 -19 26 -6 0 -6 -6 2 -15z"/>
<path d="M4163 1613 c-7 -2 -13 -11 -13 -18 0 -7 -6 -15 -14 -18 -19 -8 -16
-59 4 -65 13 -5 13 -3 1 11 -11 14 -11 17 0 18 8 1 17 1 22 0 11 -2 8 14 -5
28 -7 8 -8 11 -2 8 13 -7 47 26 37 36 -7 8 -12 8 -30 0z"/>
<path d="M4185 1520 c-3 -5 -3 -10 2 -10 4 0 -3 -7 -15 -16 -12 -8 -22 -20
-22 -26 0 -6 8 -4 18 5 10 10 24 17 30 17 6 0 10 9 9 20 -1 21 -12 26 -22 10z"/>
<path d="M4103 1471 c-1 -13 3 -18 12 -15 7 3 19 -3 26 -13 13 -17 49 -31 49
-18 0 3 -15 14 -32 25 -18 11 -28 20 -23 20 6 0 3 5 -5 10 -21 14 -26 12 -27
-9z"/>
<path d="M3985 510 c-3 -6 1 -7 9 -4 18 7 21 14 7 14 -6 0 -13 -4 -16 -10z"/>
<path d="M3385 416 c-18 -13 -18 -14 4 -21 21 -6 21 -7 4 -20 -20 -15 -15 -25
14 -28 12 0 20 -9 20 -21 2 -19 1 -19 -8 -3 -15 25 -32 22 -18 -4 8 -15 8 -19
0 -15 -9 6 -15 -4 -13 -25 0 -3 -17 -16 -39 -29 -35 -22 -51 -42 -31 -39 21 4
32 -2 26 -13 -6 -10 -5 -10 7 -1 12 10 18 10 28 0 10 -9 10 -6 0 11 -8 12 -17
22 -22 22 -4 0 -5 -5 -1 -12 4 -7 3 -8 -5 -4 -20 13 -1 26 28 21 18 -3 33 1
41 9 9 12 6 14 -22 11 l-33 -4 25 14 c15 9 19 14 10 15 -9 0 -4 6 10 13 14 7
25 19 25 27 0 8 4 20 8 27 4 7 -3 22 -18 37 -14 15 -23 31 -20 36 8 14 2 13
-20 -4z m44 -50 c10 -12 9 -14 -6 -11 -10 2 -22 4 -28 4 -5 1 -3 6 5 11 19 12
15 12 29 -4z"/>
<path d="M3387 219 c7 -7 15 -10 18 -7 3 3 -2 9 -12 12 -14 6 -15 5 -6 -5z"/>
<path d="M2021 146 c-10 -11 -9 -14 1 -12 14 2 23 15 15 22 -2 2 -10 -2 -16
-10z"/>
<path d="M2206 122 c-3 -5 1 -9 9 -9 8 0 12 4 9 9 -3 4 -7 8 -9 8 -2 0 -6 -4
-9 -8z"/>
<path d="M2306 112 c-3 -5 1 -9 9 -9 8 0 12 4 9 9 -3 4 -7 8 -9 8 -2 0 -6 -4
-9 -8z"/>
<path d="M2487 113 c-3 -5 6 -9 20 -10 19 -1 22 1 12 8 -17 11 -26 11 -32 2z"/>
<path d="M2579 103 c-13 -17 -13 -17 6 -3 11 8 22 16 24 17 2 2 0 3 -6 3 -6 0
-17 -8 -24 -17z"/>
<path d="M4760 3485 c-9 -10 -9 -15 -1 -15 6 0 11 5 11 10 0 6 6 5 14 -2 8 -7
12 -16 10 -19 -2 -3 4 -6 12 -6 11 0 9 6 -8 24 -26 27 -23 27 -38 8z"/>
<path d="M4840 3420 c-9 -6 -10 -10 -3 -10 6 0 15 5 18 10 8 12 4 12 -15 0z"/>
<path d="M4835 3390 c-3 -5 -1 -10 4 -10 6 0 11 5 11 10 0 6 -2 10 -4 10 -3 0
-8 -4 -11 -10z"/>
<path d="M4876 3337 c3 -10 9 -15 12 -12 3 3 0 11 -7 18 -10 9 -11 8 -5 -6z"/>
<path d="M4916 2378 c3 -5 10 -6 15 -3 13 9 11 12 -6 12 -8 0 -12 -4 -9 -9z"/>
<path d="M1093 653 c1 -26 12 -30 21 -7 3 8 2 13 -3 9 -5 -3 -11 1 -14 7 -3 7
-4 3 -4 -9z"/>
<path d="M3965 660 c-3 -5 -1 -10 4 -10 6 0 11 5 11 10 0 6 -2 10 -4 10 -3 0
-8 -4 -11 -10z"/>
<path d="M4144 548 c-4 -7 -3 -8 5 -4 6 4 20 2 29 -6 15 -12 16 -11 3 5 -16
20 -27 22 -37 5z"/>
<path d="M3856 518 c5 -7 0 -9 -14 -6 -19 5 -20 3 -12 -12 6 -11 6 -21 1 -24
-5 -4 -11 -2 -13 3 -1 5 -10 2 -18 -7 -13 -14 -12 -15 2 -10 22 9 32 -19 11
-30 -10 -6 -12 -12 -5 -16 6 -4 10 -12 8 -19 -1 -7 -1 -9 1 -4 3 4 10 4 15 1
7 -4 8 -2 4 4 -4 7 -2 12 3 12 6 0 11 -4 11 -8 0 -5 7 -9 16 -9 14 0 14 2 -2
14 -10 7 -24 11 -31 9 -7 -3 -13 -1 -13 4 0 16 19 21 40 10 16 -9 18 -8 14 5
-3 8 -9 13 -13 11 -12 -8 -34 11 -26 23 4 8 11 9 18 2 9 -7 12 0 13 25 0 19
-3 34 -8 34 -5 0 -6 -5 -2 -12z"/>
<path d="M4150 526 c0 -2 7 -7 16 -10 8 -3 12 -2 9 4 -6 10 -25 14 -25 6z"/>
<path d="M1494 501 c3 -5 16 -11 28 -14 22 -6 22 -5 4 8 -22 17 -40 20 -32 6z"/>
<path d="M4207 473 c13 -20 18 -21 31 -11 13 11 15 10 9 -4 -3 -10 -3 -19 1
-22 4 -3 8 4 9 14 2 22 -21 43 -47 45 -17 1 -17 0 -3 -22z m28 8 c3 -5 1 -12
-5 -16 -5 -3 -10 1 -10 9 0 18 6 21 15 7z"/>
<path d="M1116 478 c3 -4 9 -8 15 -8 5 0 9 4 9 8 0 5 -7 9 -15 9 -8 0 -12 -4
-9 -9z"/>
<path d="M1487 479 c7 -7 15 -10 18 -7 3 3 -2 9 -12 12 -14 6 -15 5 -6 -5z"/>
<path d="M3750 481 c0 -6 4 -13 10 -16 6 -3 7 1 4 9 -7 18 -14 21 -14 7z"/>
<path d="M1516 461 c-3 -4 4 -17 17 -27 l22 -19 -20 24 c-18 22 -18 24 -2 18
11 -4 16 -3 12 3 -8 12 -22 13 -29 1z"/>
<path d="M1480 440 c-9 -6 -10 -10 -3 -10 6 0 15 5 18 10 8 12 4 12 -15 0z"/>
<path d="M3773 433 c0 -10 4 -10 16 -1 9 7 18 13 20 15 2 1 -5 1 -16 0 -11 0
-20 -7 -20 -14z"/>
<path d="M1585 420 c-3 -6 1 -7 9 -4 18 7 21 14 7 14 -6 0 -13 -4 -16 -10z"/>
<path d="M1627 410 c3 -11 9 -20 15 -20 5 0 4 9 -2 20 -6 11 -12 20 -14 20 -2
0 -2 -9 1 -20z"/>
<path d="M3900 420 c12 -8 12 -10 1 -10 -8 0 -12 -2 -9 -5 3 -3 13 -2 22 1 14
5 15 9 4 15 -7 5 -17 9 -23 9 -5 0 -3 -5 5 -10z"/>
<path d="M1658 413 c6 -3 10 -9 6 -14 -3 -5 0 -9 5 -9 6 0 11 -4 11 -8 0 -10
-41 -9 -57 1 -8 5 -13 4 -13 -3 0 -7 -6 -10 -12 -7 -7 2 -12 10 -10 16 1 7 -2
10 -8 6 -8 -5 -7 -11 1 -21 10 -12 5 -22 -24 -52 -21 -21 -37 -42 -37 -46 0
-5 12 5 28 22 15 17 35 30 44 29 23 -4 35 -17 17 -18 -8 -1 -18 -2 -24 -4 -5
-1 -13 -3 -18 -3 -12 -3 20 -59 37 -65 8 -3 17 -1 20 6 2 7 5 4 5 -5 1 -10 7
-18 14 -18 8 0 7 -4 -3 -11 -12 -8 -10 -9 8 -4 13 4 22 2 22 -4 0 -6 5 -11 12
-11 6 0 8 3 5 7 -4 3 0 15 10 25 9 10 14 18 12 19 -2 0 -12 2 -21 4 -10 2 -18
-1 -18 -6 0 -5 5 -9 11 -9 5 0 8 -4 4 -10 -3 -5 -12 -7 -20 -4 -11 5 -12 11
-4 25 5 11 14 17 20 14 5 -4 9 -1 9 6 0 6 -8 9 -19 6 -23 -6 -48 7 -32 17 6 4
11 1 11 -6 0 -10 3 -9 10 2 6 9 5 20 -3 29 -8 10 -8 13 -1 8 7 -4 17 0 24 8 7
8 9 15 5 15 -4 0 -2 7 6 16 11 14 13 14 22 -1 8 -15 10 -15 28 1 17 15 20 15
43 0 31 -20 48 -21 22 -1 -14 11 -16 15 -5 15 9 1 7 5 -6 13 -11 6 -22 12 -25
12 -3 0 -11 4 -19 9 -10 6 -16 5 -19 -2 -5 -16 -23 -16 -19 0 1 7 -12 12 -33
13 -19 1 -29 0 -22 -2z m47 -12 c-9 -15 14 -24 30 -11 23 19 26 -6 3 -26 -12
-11 -18 -14 -15 -8 11 19 -20 24 -36 6 -9 -9 -16 -21 -16 -27 -1 -5 -5 -11
-11 -11 -5 -1 -13 -2 -16 -3 -4 0 0 -9 7 -18 8 -9 9 -14 3 -10 -7 4 -17 0 -24
-8 -10 -12 -9 -16 4 -21 9 -3 16 -14 16 -23 -1 -15 -1 -15 -10 1 -6 10 -18 14
-30 11 -18 -5 -22 1 -19 23 0 4 -5 11 -13 16 -8 5 -2 7 17 3 25 -4 31 -1 32
15 2 18 -8 25 -29 21 -13 -2 -9 16 7 29 9 7 19 10 22 6 4 -4 1 -11 -7 -16 -8
-6 -10 -10 -5 -11 42 -6 52 -5 52 8 0 9 -4 10 -11 3 -16 -16 -30 -12 -16 5 7
8 20 14 29 13 9 -2 17 4 17 12 3 28 4 30 15 30 5 0 8 -4 4 -9z m80 -21 c3 -5
1 -10 -4 -10 -6 0 -11 5 -11 10 0 6 2 10 4 10 3 0 8 -4 11 -10z"/>
<path d="M1595 281 c-3 -5 -2 -12 3 -15 5 -3 9 1 9 9 0 17 -3 19 -12 6z"/>
<path d="M1475 401 c3 -2 -1 -11 -7 -20 -7 -9 -2 -7 11 4 13 11 25 18 26 15 2
-3 6 -3 9 1 3 3 -6 5 -19 5 -13 0 -22 -2 -20 -5z"/>
<path d="M3763 397 c-3 -6 -1 -7 5 -3 5 3 12 1 14 -6 3 -8 6 -7 10 3 7 17 -19
22 -29 6z"/>
<path d="M4310 405 c0 -1 7 -15 14 -31 8 -15 13 -31 11 -34 -2 -4 3 -7 11 -7
10 0 11 4 4 11 -5 5 -10 15 -10 21 1 5 10 -1 20 -14 11 -13 20 -19 20 -14 0 5
-16 23 -35 40 -19 17 -35 30 -35 28z"/>
<path d="M3919 398 c-5 -18 -6 -38 -1 -34 7 8 12 36 6 36 -2 0 -4 -1 -5 -2z"/>
<path d="M1484 364 c-18 -14 -18 -15 4 -4 12 6 22 13 22 15 0 8 -5 6 -26 -11z"/>
<path d="M1530 374 c0 -2 9 -8 20 -14 11 -6 20 -7 20 -2 0 6 -9 12 -20 15 -11
3 -20 3 -20 1z"/>
<path d="M3600 366 c7 -7 13 -7 20 0 6 6 3 10 -10 10 -13 0 -16 -4 -10 -10z"/>
<path d="M4300 371 c0 -6 4 -13 10 -16 6 -3 7 1 4 9 -7 18 -14 21 -14 7z"/>
<path d="M1510 340 c-6 -11 -15 -18 -19 -15 -5 3 -11 -2 -15 -10 -3 -8 0 -17
6 -21 7 -4 8 -3 4 4 -6 11 6 17 27 13 9 -2 37 24 37 35 0 3 -8 0 -17 -7 -15
-12 -16 -12 -10 4 9 23 0 22 -13 -3z"/>
<path d="M3630 350 c0 -5 5 -10 11 -10 5 0 7 5 4 10 -3 6 -8 10 -11 10 -2 0
-4 -4 -4 -10z"/>
<path d="M3711 347 c-8 -10 -7 -14 2 -14 8 0 14 6 14 14 0 7 -1 13 -2 13 -2 0
-8 -6 -14 -13z"/>
<path d="M1235 340 c3 -5 8 -10 11 -10 2 0 4 5 4 10 0 6 -5 10 -11 10 -5 0 -7
-4 -4 -10z"/>
<path d="M1701 333 c8 -9 9 -14 3 -10 -12 7 -33 -11 -32 -28 2 -19 32 -34 51
-24 17 10 15 29 -4 29 -6 0 -8 -4 -4 -9 3 -5 0 -13 -7 -17 -7 -4 -10 -4 -6 1
4 4 0 14 -10 22 -9 8 -11 11 -3 7 8 -4 12 -3 8 3 -4 6 3 8 18 5 29 -5 32 5 8
24 -25 19 -38 17 -22 -3z"/>
<path d="M3567 335 c-8 -19 12 -30 26 -16 9 9 7 10 -8 5 -18 -7 -18 -6 -6 9 7
9 9 17 3 17 -5 0 -12 -7 -15 -15z"/>
<path d="M3840 340 c-12 -7 -10 -9 7 -7 12 0 19 5 17 9 -6 10 -6 10 -24 -2z"/>
<path d="M1417 323 c3 -7 9 -11 13 -8 5 3 10 -1 13 -7 3 -7 5 -4 4 7 -1 12 -8
21 -18 21 -9 0 -15 -6 -12 -13z"/>
<path d="M3675 330 c-4 -6 -10 -8 -15 -5 -5 3 -11 2 -14 -3 -2 -4 6 -8 18 -8
12 0 23 6 23 13 0 16 -4 16 -12 3z"/>
<path d="M3610 320 c0 -5 5 -10 10 -10 6 0 10 5 10 10 0 6 -4 10 -10 10 -5 0
-10 -4 -10 -10z"/>
<path d="M1250 300 c0 -5 5 -10 11 -10 5 0 7 5 4 10 -3 6 -8 10 -11 10 -2 0
-4 -4 -4 -10z"/>
<path d="M1354 286 c1 -8 5 -18 8 -22 4 -3 5 1 4 10 -1 8 -5 18 -8 22 -4 3 -5
-1 -4 -10z"/>
<path d="M1501 283 c-1 -16 -6 -20 -23 -17 -21 4 -21 4 -3 -5 24 -11 39 0 32
25 -4 16 -5 16 -6 -3z"/>
<path d="M3590 290 c0 -5 5 -10 10 -10 6 0 10 5 10 10 0 6 -4 10 -10 10 -5 0
-10 -4 -10 -10z"/>
<path d="M3632 280 c4 -32 16 -50 31 -50 8 0 7 4 -2 9 -8 5 -16 20 -18 32 -2
13 -6 25 -9 28 -3 3 -4 -6 -2 -19z"/>
<path d="M3666 283 c-6 -14 -5 -15 5 -6 7 7 10 15 7 18 -3 3 -9 -2 -12 -12z"/>
<path d="M1394 272 c-9 -14 -8 -18 6 -18 11 0 15 6 12 18 -2 10 -5 18 -6 18
-1 0 -6 -8 -12 -18z"/>
<path d="M1445 280 c-3 -6 1 -7 9 -4 18 7 21 14 7 14 -6 0 -13 -4 -16 -10z"/>
<path d="M3715 280 c-3 -5 -1 -10 4 -10 6 0 11 5 11 10 0 6 -2 10 -4 10 -3 0
-8 -4 -11 -10z"/>
<path d="M3865 280 c-3 -6 1 -7 9 -4 18 7 21 14 7 14 -6 0 -13 -4 -16 -10z"/>
<path d="M1540 266 c-9 -11 -9 -19 0 -33 9 -15 10 -14 4 7 l-7 25 26 -27 c14
-16 34 -28 44 -27 12 0 9 4 -9 11 -16 5 -28 16 -28 24 0 8 -5 14 -11 14 -5 0
-7 5 -4 10 9 15 -1 12 -15 -4z"/>
<path d="M3770 259 c0 -5 5 -7 10 -4 6 3 10 8 10 11 0 2 -4 4 -10 4 -5 0 -10
-5 -10 -11z"/>
<path d="M1276 247 c3 -10 9 -15 12 -12 3 3 0 11 -7 18 -10 9 -11 8 -5 -6z"/>
<path d="M1735 232 c-3 -9 -3 -13 1 -9 4 4 12 2 19 -3 8 -7 12 -5 12 5 0 21
-24 27 -32 7z"/>
<path d="M3550 234 c0 -9 -5 -12 -12 -8 -7 4 -8 3 -4 -4 10 -16 14 -15 26 8 7
14 7 20 0 20 -5 0 -10 -7 -10 -16z"/>
<path d="M3599 248 c-6 -22 -5 -38 3 -38 6 0 8 6 5 14 -3 8 -1 17 6 20 9 3 9
5 0 5 -7 1 -13 0 -14 -1z"/>
<path d="M1439 213 c-13 -16 -12 -17 4 -4 16 13 21 21 13 21 -2 0 -10 -8 -17
-17z"/>
<path d="M1503 204 c9 -11 15 -24 12 -27 -3 -4 -2 -5 2 -2 4 3 8 13 9 21 1 9
0 13 -3 10 -4 -3 -13 0 -22 6 -12 10 -12 7 2 -8z"/>
<path d="M3510 216 c0 -2 8 -10 18 -17 15 -13 16 -12 3 4 -13 16 -21 21 -21
13z"/>
<path d="M1570 200 c0 -5 5 -10 11 -10 5 0 7 5 4 10 -3 6 -8 10 -11 10 -2 0
-4 -4 -4 -10z"/>
<path d="M3424 188 c-4 -7 -4 -10 1 -6 4 4 14 3 22 -4 11 -8 12 -7 7 6 -7 19
-20 21 -30 4z"/>
<path d="M1653 169 c-2 -23 3 -25 10 -4 4 8 3 16 -1 19 -4 3 -9 -4 -9 -15z"/>
<path d="M3615 180 c3 -5 8 -10 11 -10 2 0 4 5 4 10 0 6 -5 10 -11 10 -5 0 -7
-4 -4 -10z"/>
<path d="M1473 165 c0 -8 4 -12 9 -9 5 3 6 10 3 15 -9 13 -12 11 -12 -6z"/>
<path d="M1686 163 c-6 -14 -5 -15 5 -6 7 7 10 15 7 18 -3 3 -9 -2 -12 -12z"/>
<path d="M3177 174 c-4 -4 -3 -12 1 -18 3 -6 7 -17 7 -25 0 -17 25 -28 25 -11
0 6 -4 8 -10 5 -5 -3 -10 -2 -10 3 0 17 13 22 28 9 13 -9 14 -9 8 1 -4 6 -2
12 3 12 6 0 11 4 11 9 0 5 -8 8 -17 6 -10 -1 -23 1 -29 6 -6 5 -14 6 -17 3z"/>
<path d="M1775 140 c-3 -5 -1 -10 4 -10 6 0 11 5 11 10 0 6 -2 10 -4 10 -3 0
-8 -4 -11 -10z"/>
<path d="M2115 140 c-3 -4 0 -10 6 -12 8 -3 6 -10 -5 -21 -10 -9 -13 -17 -8
-17 5 0 17 11 25 24 14 21 14 25 2 30 -8 3 -17 1 -20 -4z"/>
<path d="M1861 133 c-1 -17 16 -25 25 -12 4 7 3 9 -4 5 -5 -3 -13 0 -15 6 -4
9 -6 10 -6 1z"/>
<path d="M1913 105 c0 -8 4 -15 9 -15 4 0 8 4 8 9 0 6 -4 12 -8 15 -5 3 -9 -1
-9 -9z"/>
<path d="M3080 111 c0 -6 4 -13 10 -16 6 -3 7 1 4 9 -7 18 -14 21 -14 7z"/>
<path d="M1975 100 c-3 -5 -1 -10 4 -10 6 0 11 5 11 10 0 6 -2 10 -4 10 -3 0
-8 -4 -11 -10z"/>
<path d="M2070 101 c0 -6 4 -13 10 -16 6 -3 7 1 4 9 -7 18 -14 21 -14 7z"/>
<path d="M2702 101 c-10 -6 -10 -10 2 -21 9 -7 14 -16 11 -20 -3 -5 -1 -11 4
-14 11 -7 9 13 -2 32 -5 6 -5 17 -2 22 7 12 4 12 -13 1z"/>
<path d="M2045 80 c10 -11 20 -20 23 -20 3 0 -3 9 -13 20 -10 11 -20 20 -23
20 -3 0 3 -9 13 -20z"/>
<path d="M2976 73 c-6 -14 -5 -15 5 -6 7 7 10 15 7 18 -3 3 -9 -2 -12 -12z"/>
<path d="M3054 82 c4 -3 14 -7 22 -8 9 -1 13 0 10 4 -4 3 -14 7 -22 8 -9 1
-13 0 -10 -4z"/>
<path d="M2136 62 c-3 -5 1 -9 9 -9 8 0 12 4 9 9 -7 10 -11 10 -18 0z"/>
<path d="M2620 66 c0 -2 9 -6 20 -9 11 -3 18 -1 14 4 -5 9 -34 13 -34 5z"/>
</g>
</svg>
